<svg width="49" height="18" viewBox="0 0 49 18" fill="none" xmlns="http://www.w3.org/2000/svg">
<path id="Vector" d="M40.5123 0.69227C38.5029 0.69227 36.6596 1.38858 35.2133 2.54909C33.7165 1.34539 31.8446 0.689454 29.9144 0.69227C27.905 0.69227 26.0617 1.38858 24.6154 2.54909C23.1185 1.34539 21.2467 0.689454 19.3165 0.69227C17.3071 0.69227 15.4638 1.38858 14.0175 2.54909C12.7835 1.55991 11.2911 0.93634 9.71302 0.750617C8.13498 0.564893 6.53597 0.82462 5.10123 1.49971C3.66649 2.1748 2.45474 3.23762 1.60637 4.56503C0.758005 5.89245 0.307739 7.43014 0.307739 8.99996C0.307739 10.5698 0.758005 12.1075 1.60637 13.4349C2.45474 14.7623 3.66649 15.8251 5.10123 16.5002C6.53597 17.1753 8.13498 17.435 9.71302 17.2493C11.2911 17.0636 12.7835 16.44 14.0175 15.4508C15.4638 16.6113 17.3071 17.3076 19.3165 17.3076C21.3259 17.3076 23.1692 16.6113 24.6154 15.4508C26.0617 16.6113 27.905 17.3076 29.9144 17.3076C31.9238 17.3076 33.7671 16.6113 35.2133 15.4508C36.2587 16.2888 37.4924 16.8666 38.8107 17.1357C40.1291 17.4049 41.4936 17.3574 42.7896 16.9974C44.0856 16.6375 45.2751 15.9754 46.2582 15.067C47.2414 14.1585 47.9894 13.0302 48.4394 11.7769C48.8894 10.5236 49.0282 9.18188 48.8442 7.86455C48.6602 6.54722 48.1588 5.29277 47.382 4.20663C46.6053 3.12049 45.576 2.23441 44.3805 1.62287C43.1851 1.01132 41.8585 0.69218 40.5123 0.69227ZM35.2133 12.7336C34.424 11.6449 34.0004 10.3391 34.002 8.99996C34.002 7.60734 34.4517 6.31877 35.2133 5.2663C35.975 6.31877 36.4246 7.60734 36.4246 8.99996C36.4246 10.3926 35.975 11.6811 35.2133 12.7336ZM24.6154 12.7336C23.8261 11.6449 23.4025 10.3391 23.4041 8.99996C23.4041 7.60734 23.8538 6.31877 24.6154 5.2663C25.3771 6.31877 25.8267 7.60734 25.8267 8.99996C25.8267 10.3926 25.3771 11.6811 24.6154 12.7336ZM14.0175 12.7336C13.2282 11.6449 12.8045 10.3391 12.8062 8.99996C12.8062 7.60734 13.2559 6.31877 14.0175 5.2663C14.7792 6.31877 15.2288 7.60734 15.2288 8.99996C15.2288 10.3926 14.7792 11.6811 14.0175 12.7336ZM2.20832 8.99996C2.20879 7.8 2.54914 6.6241 3.19088 5.60525C3.83261 4.58639 4.75012 3.76522 5.83967 3.23458C6.92922 2.70395 8.14733 2.48502 9.35626 2.60256C10.5652 2.7201 11.7167 3.16941 12.6806 3.89969C11.529 5.35623 10.9043 7.1518 10.9062 8.99996C10.9062 10.9228 11.5706 12.6936 12.6806 14.1002C11.7167 14.8305 10.5652 15.2798 9.35626 15.3974C8.14733 15.5149 6.92922 15.296 5.83967 14.7653C4.75012 14.2347 3.83261 13.4135 3.19088 12.3947C2.54914 11.3758 2.20879 10.1999 2.20832 8.99996ZM15.3544 14.1002C16.5061 12.6437 17.1308 10.8481 17.1288 8.99996C17.1288 7.0771 16.4644 5.30632 15.3544 3.89969C16.4901 3.03606 17.8833 2.56818 19.3165 2.5691C20.8073 2.5691 22.1807 3.06532 23.2785 3.89969C22.1263 5.35593 21.5015 7.15169 21.5041 8.99996C21.5041 10.9228 22.1685 12.6936 23.2785 14.1002C22.1429 14.9639 20.7497 15.4317 19.3165 15.4308C17.8831 15.4328 16.4896 14.9648 15.3544 14.1002ZM25.9523 14.1002C27.1046 12.644 27.7293 10.8482 27.7267 8.99996C27.7267 7.0771 27.0624 5.30632 25.9523 3.89769C27.0502 3.06532 28.4236 2.5671 29.9144 2.5671C31.4052 2.5671 32.7786 3.06332 33.8764 3.89769C32.7242 5.35393 32.0994 7.14969 32.102 8.99796C32.102 10.9208 32.7664 12.6916 33.8764 14.0982C32.7408 14.9619 31.3476 15.4297 29.9144 15.4288C28.4811 15.4323 27.0873 14.9649 25.9523 14.1002ZM40.5123 15.4308C39.0789 15.4328 37.6854 14.9648 36.5502 14.1002C37.7016 12.6435 38.3263 10.8481 38.3246 8.99996C38.3246 7.0771 37.6603 5.30632 36.5502 3.89969C37.371 3.27706 38.3301 2.85665 39.3482 2.67334C40.3663 2.49004 41.4139 2.54911 42.4043 2.84565C43.3946 3.1422 44.2991 3.66768 45.0428 4.37853C45.7865 5.08937 46.3479 5.9651 46.6805 6.93309C47.0131 7.90108 47.1073 8.93344 46.9553 9.94458C46.8033 10.9557 46.4094 11.9165 45.8064 12.7472C45.2034 13.578 44.4086 14.2548 43.4879 14.7215C42.5672 15.1882 41.5471 15.4313 40.5123 15.4308Z" fill="white"/>
</svg>
