<svg width="40" height="40" viewBox="0 0 40 40" fill="none" xmlns="http://www.w3.org/2000/svg">
<g id="Vector">
<path d="M20.2645 19.8884L21.1292 19.3584L32.1747 26.9173L20.2645 19.8884Z" fill="white"/>
<path d="M19.623 19.47L18.8141 18.9958L19.7345 4.57521L19.623 19.47Z" fill="white"/>
<path d="M18.6467 19.4142L14.9928 22.4545L19.3719 19.8605L18.6467 19.4142Z" fill="white"/>
<path d="M19.8461 0.307617C8.96793 0.307617 0.153809 9.12174 0.153809 19.9999C0.153809 30.8781 8.96793 39.6922 19.8461 39.6922C30.7243 39.6922 39.5384 30.8781 39.5384 19.9999C39.5384 9.12174 30.7243 0.307617 19.8461 0.307617ZM19.8461 38.6044C15.3554 38.6044 11.1436 37.0982 7.99168 34.3647C4.95137 31.687 2.58048 27.4194 1.99473 22.9008C3.38937 31.5197 10.8367 38.0745 19.8461 38.0745C29.8317 38.0745 37.9207 29.9856 37.9207 19.9999C37.9207 15.8439 36.3865 11.7994 34.0157 8.75913C36.3865 10.6001 38.4506 15.816 38.4506 19.9999C38.4785 30.2924 30.1386 38.6044 19.8461 38.6044ZM18.1447 18.5774L19.7345 2.26011C19.7624 2.26011 19.8182 2.26011 19.8461 2.26011H19.874L20.0414 19.4421L22.7749 17.7964L20.0414 2.26011C29.7481 2.34379 37.5859 10.2653 37.5859 19.972C37.5859 23.096 36.777 26.0248 35.3545 28.5909L23.0538 18.2985L21.8823 18.9679L35.2708 28.7583C35.2429 28.8141 35.215 28.8698 35.1593 28.9256L20.0972 20.251V23.2913L35.0477 29.0651C31.9516 34.2253 26.2894 37.684 19.8461 37.684C13.4029 37.684 7.74065 34.2253 4.64455 29.093L19.5951 23.2913V20.2231L4.53298 28.8698C4.50508 28.8141 4.47719 28.7583 4.42141 28.7025L17.7542 18.94L16.5827 18.2706L4.30983 28.5072C2.91519 25.969 2.1063 23.0681 2.1063 19.9441C2.1063 10.2932 9.83261 2.45536 19.4277 2.23222L17.0289 17.9359L18.1447 18.5774ZM19.8461 1.36754C9.58157 1.36754 1.24163 9.70749 1.24163 19.972C1.24163 24.156 2.74784 28.0888 5.06294 31.5197C5.84394 32.998 6.68072 33.8905 7.82433 35.0899C3.38937 31.5476 0.516415 26.0806 0.516415 19.972C0.516415 9.2891 9.16318 0.642331 19.8461 0.642331C30.5291 0.642331 39.3432 9.6796 39.0085 19.972C38.7574 9.93063 29.9712 1.36754 19.8461 1.36754Z" fill="white"/>
</g>
</svg>
