<svg width="53" height="40" viewBox="0 0 53 40" fill="none" xmlns="http://www.w3.org/2000/svg">
<path id="Vector" d="M40.4063 33.3231C43.5773 33.3231 45.4739 31.0551 45.4739 28.2555C45.4739 25.4558 43.5773 23.1879 40.4063 23.1879H30.1256V33.3231H40.4063ZM40.4063 15.6582C43.1975 15.6582 44.8959 13.6497 44.8959 11.1708C44.8959 8.69185 43.1975 6.68126 40.4063 6.68126H30.1256V15.6582H40.4063ZM15.6464 23.1858V25.6964H9.27713V13.1476H15.6464V15.6582H21.7288V6.67915H6.40788V9.86486H0.0385742V6.67915V0.307739H40.4063C46.7229 0.307739 51.8453 5.42808 51.8453 11.7468C51.8496 14.5211 50.8411 17.2004 49.0099 19.2849C51.1217 21.4494 52.4234 24.4115 52.4234 27.6753C52.4234 34.3125 47.0436 39.6924 40.4063 39.6924H0.0385742V33.321V30.1352H6.40999V33.321H21.7309V23.1858H15.6464Z" fill="white"/>
</svg>
