<svg width="29" height="40" viewBox="0 0 29 40" fill="none" xmlns="http://www.w3.org/2000/svg">
<g id="Vector">
<path d="M28.3499 3.72137L28.2898 3.33038L27.9292 3.16497C26.0964 2.29276 21.1389 0.307739 14.619 0.307739C8.45959 0.307739 3.74241 2.08223 1.45894 3.14993L1.09839 3.31535L1.0383 3.70634C0.632683 6.30792 -0.0884147 13.2254 1.92465 21.0302C3.96776 28.9402 8.12909 35.1058 14.2584 39.3916L14.6791 39.6924L15.0997 39.3916C21.229 35.1208 25.3904 28.9402 27.4335 21.0302C29.4766 13.2405 28.7555 6.32295 28.3499 3.72137ZM26.0063 20.6692C24.0984 28.0379 20.2976 33.8125 14.6941 37.8728C9.09055 33.8125 5.28977 28.0228 3.38187 20.6692C1.51903 13.4961 2.05985 7.11997 2.46547 4.35297C4.73392 3.33039 9.0605 1.82658 14.619 1.82658C20.4478 1.82658 24.9547 3.48077 26.9377 4.35297C27.3283 7.11997 27.8691 13.4961 26.0063 20.6692Z" fill="white"/>
<path d="M4.20812 7.51096L5.09447 7.18012L5.21465 7.49592L3.95273 7.97714L3.30675 6.18761L3.6673 6.05227L4.20812 7.51096Z" fill="white"/>
<path d="M9.70649 6.39814L9.34594 6.47334L9.04548 4.90938H9.03046L8.98539 6.53349L8.60982 6.60868L7.96384 5.11991L8.26429 6.68387L7.90375 6.74402L7.5432 4.8793L8.11407 4.77404L8.73 6.17257L8.77507 4.63869L9.34594 4.53343L9.70649 6.39814Z" fill="white"/>
<path d="M18.1944 5.16503L18.9906 5.24022L18.8855 6.2628L18.615 6.23273L18.6 5.99212C18.4949 6.09738 18.3296 6.24776 17.9841 6.21769C17.5334 6.17257 17.1428 5.79662 17.2179 5.13495C17.278 4.62366 17.6085 4.15748 18.2395 4.23267C18.8254 4.29282 19.0056 4.69885 19.0056 4.95449L18.615 4.90938C18.615 4.83419 18.5099 4.57854 18.2395 4.54847C17.954 4.51839 17.6836 4.68381 17.6235 5.18006C17.5634 5.69136 17.8339 5.85678 18.1043 5.88685C18.1944 5.90189 18.4798 5.88685 18.6 5.5109L18.1644 5.46579L18.1944 5.16503Z" fill="white"/>
<path d="M20.0723 5.60113L19.922 6.44326L19.5314 6.36807L19.877 4.48831L20.2676 4.5635L20.1324 5.27029L20.8685 5.40563L20.9887 4.69885L21.3792 4.759L21.0487 6.63875L20.6582 6.5786L20.8084 5.73647L20.0723 5.60113Z" fill="white"/>
<path d="M22.1003 6.8944L21.7097 6.80417L22.1604 4.93946L22.536 5.02968L22.1003 6.8944Z" fill="white"/>
<path d="M24.4289 5.57105L24.7894 5.67632L24.2336 7.49592L23.858 7.39066L23.5125 5.85678L23.1069 7.16509L22.7613 7.04478L23.3172 5.22518L23.7078 5.34548L24.0533 6.83425L24.4289 5.57105Z" fill="white"/>
<path d="M25.2401 7.87187L24.8646 7.73653L25.5406 5.947L25.9162 6.09738L25.2401 7.87187Z" fill="white"/>
<path d="M22.5661 19.7369C22.2205 19.6316 21.8299 19.4211 21.3492 18.9098C21.3792 18.6842 21.3943 18.5338 21.3792 18.3985C21.3642 18.2632 21.3192 18.1729 21.2591 18.0376C21.199 17.9022 21.1239 17.7819 21.0788 17.5864C21.0337 17.3909 21.0037 17.1203 21.0487 16.6842C21.0938 16.2481 21.0788 15.5413 20.8985 14.7743C20.7182 14.0074 20.3577 13.1803 19.7418 12.4886C19.907 11.9773 19.9971 11.6163 20.0122 11.3306C20.0272 11.0449 19.9821 10.8344 19.8619 10.5787C19.7418 10.3381 19.4413 10.1276 18.9906 9.99224C18.5399 9.85689 17.954 9.7817 17.278 9.7817C16.602 9.7817 15.6255 9.84186 14.8293 9.82682C14.0331 9.81178 13.3871 9.75163 13.3871 9.54109C13.3871 9.33056 13.4922 9.24033 13.6425 9.18018C13.7927 9.12003 13.988 9.12003 14.1382 9.10499C14.3636 9.19522 14.6941 9.25537 15.0246 9.27041C15.3551 9.30049 15.7156 9.30049 15.986 9.30049C16.2715 9.30049 16.5269 9.21026 16.8123 9.13507C17.0827 9.05988 17.3832 8.96965 17.7137 8.96965C17.4282 8.87942 17.0677 8.74408 16.6921 8.63881C16.3165 8.53355 15.941 8.47339 15.6255 8.54858C15.5053 8.44332 15.4302 8.35309 15.295 8.32301C15.1598 8.29294 14.9795 8.29294 14.6791 8.38317C14.3786 8.45836 14.1833 8.48843 14.0331 8.51851C13.8678 8.53355 13.7476 8.54858 13.5523 8.5937C13.357 8.63881 13.1017 8.66889 12.8913 8.77415C12.681 8.87942 12.5158 9.04484 12.5158 9.37568C12.5158 9.69147 12.6359 9.9772 12.9514 10.1727C13.2819 10.3682 13.8227 10.4885 14.6791 10.4735C15.5504 10.4584 16.4968 10.4434 17.278 10.4735C18.0592 10.5186 18.6751 10.6238 18.8855 10.8644C19.0958 11.1051 19.1559 11.2705 19.1258 11.4058C19.0958 11.5412 18.9756 11.6464 18.8254 11.7818C18.6902 11.7818 18.4648 11.7968 18.1794 11.7818C17.909 11.7667 17.5935 11.7066 17.3081 11.5863C17.0226 11.4509 16.6921 11.3757 16.3466 11.3757C16.0161 11.3757 15.6706 11.4359 15.4001 11.6013C15.1147 11.7517 14.4237 12.0976 13.7176 12.6089C13.0115 13.1352 12.2754 13.842 11.9449 14.7593C11.5994 15.6766 11.4341 16.2481 11.329 16.6541C11.2238 17.0601 11.1937 17.2706 11.1186 17.4812C11.0435 17.6917 10.9233 17.9022 10.8182 18.1429C10.713 18.3835 10.6229 18.6391 10.6379 18.9399C10.6379 19.2406 10.6229 19.6015 10.5778 19.9474C10.5327 20.2933 10.4877 20.6241 10.4426 20.8647C10.3975 21.1053 10.3224 21.3911 10.2623 21.7219C10.2022 22.0527 10.1572 22.3986 10.1722 22.7746C10.1722 23.1505 10.1572 23.5265 10.0971 23.8874C10.052 24.2483 9.96188 24.5791 9.85672 24.8649C9.75156 25.1506 9.70649 25.3912 9.67644 25.6318C9.63137 25.8574 9.5863 26.0829 9.46612 26.3085C9.33092 26.5341 9.16566 26.8198 8.98539 27.0905C8.80512 27.3612 8.63986 27.6168 8.50466 27.7973C8.36945 27.9627 8.30936 28.1732 8.35443 28.3386C8.3995 28.5041 8.5347 28.6394 8.82014 28.6695C9.10557 28.6996 9.34594 28.6394 9.52621 28.5191C9.70649 28.3988 9.82667 28.2334 9.85672 28.0379C9.88676 27.8424 9.88676 27.5867 9.90178 27.3161C9.91681 27.0454 9.93183 26.7747 10.022 26.5642L10.2022 26.113C10.2924 25.9626 10.3525 25.9025 10.4276 25.8574C10.4877 25.8123 10.5628 25.7671 10.6529 25.6619C10.7431 25.5566 10.8933 25.2258 11.0135 24.8799C11.1337 24.534 11.2388 24.143 11.2238 23.8723C11.2238 23.6017 11.2388 23.3911 11.2839 23.2257C11.329 23.0453 11.389 22.9099 11.4642 22.7746C11.5393 22.6392 11.5843 22.4888 11.6444 22.3685C11.7196 22.2482 11.8097 22.173 11.9749 22.1881C12.1402 22.2031 12.2003 22.2934 12.2153 22.3986C12.2303 22.5039 12.2303 22.6392 12.2904 22.7595C12.3505 22.8798 12.4106 23.0001 12.4857 23.1054C12.5608 23.2107 12.666 23.3009 12.8312 23.3611C12.9815 23.4212 13.1017 23.5265 13.1768 23.6618C13.2369 23.7972 13.2369 23.9475 13.1467 24.0829C13.0566 24.2182 12.9214 24.4438 12.8162 24.6844C12.7111 24.925 12.6359 25.1506 12.6359 25.301C12.6359 25.4513 12.666 25.6769 12.6359 25.9175C12.6059 26.1581 12.5458 26.3987 12.3505 26.5942C12.1702 26.7897 12.02 26.9852 11.9148 27.1506C11.8097 27.3161 11.7646 27.4664 11.7646 27.5567C11.7646 27.6469 11.8097 27.7672 11.8998 27.8725C12.005 27.9777 12.1552 28.0379 12.4106 28.0379C12.651 28.0379 12.8463 27.9777 12.9815 27.8875C13.1167 27.7973 13.2068 27.6619 13.2669 27.4965C13.327 27.3311 13.312 27.1958 13.2819 27.0905C13.2519 26.9852 13.2218 26.895 13.2218 26.7747C13.2218 26.6544 13.2519 26.5341 13.2969 26.3837C13.342 26.2484 13.3871 26.098 13.4021 25.9626C13.4171 25.8273 13.4472 25.6619 13.5073 25.4814C13.5674 25.301 13.6575 25.1055 13.8077 24.8949C13.958 24.6844 14.0331 24.5039 14.1082 24.3385C14.1833 24.1731 14.2284 24.0378 14.3185 23.9024C14.4086 23.7671 14.4537 23.7069 14.4838 23.6769C14.5138 23.6618 14.5589 23.6919 14.649 23.737C14.7391 23.7972 14.7692 23.8423 14.7391 23.9175C14.7241 23.9776 14.664 24.0678 14.6039 24.1581C14.5438 24.2483 14.4387 24.4137 14.3185 24.5942C14.1983 24.7596 14.0781 24.9551 14.003 25.0754C13.9279 25.2107 13.8828 25.3761 13.9129 25.5265C13.9429 25.6769 14.0331 25.7822 14.2434 25.7972C14.4537 25.8123 14.619 25.8123 14.7241 25.7822C14.8443 25.7521 14.9044 25.6769 14.9194 25.5716C14.9344 25.4513 14.9645 25.2709 15.0246 25.0904C15.0696 24.91 15.1297 24.7295 15.2049 24.6092C15.28 24.4889 15.325 24.3836 15.3551 24.2934C15.3851 24.2032 15.3851 24.128 15.3851 24.0678C15.5053 24.1731 15.5954 24.3084 15.6856 24.4438C15.7607 24.5791 15.8358 24.7145 15.8959 24.8498C15.956 24.9852 16.0912 25.1355 16.3316 25.2558C16.5719 25.3761 16.9175 25.4513 17.3832 25.4363C17.8489 25.4062 18.0892 25.3912 18.2244 25.3461C18.3597 25.301 18.3897 25.2408 18.4348 25.1205C18.4949 25.0002 18.615 24.7746 18.6751 24.5491C18.7352 24.3235 18.7352 24.0829 18.5249 23.9475C18.555 23.752 18.615 23.4964 18.6902 23.2558C18.7653 23.0152 18.8855 22.7746 19.0357 22.6091C19.1859 22.4588 19.3962 22.2934 19.5765 22.158C19.7568 22.0227 19.922 21.8873 19.9671 21.7971C20.2075 21.9324 20.4478 22.0828 20.6131 22.3234C20.7934 22.564 20.8985 22.8648 20.9286 23.2859C20.9286 23.5114 20.9586 23.722 21.0037 23.9175C21.0337 24.0979 21.0788 24.2633 21.0938 24.3686C21.1088 24.4889 21.1088 24.6092 21.1239 24.7295C21.1239 24.8649 21.1239 24.9852 21.1539 25.1205C21.184 25.2558 21.2591 25.3761 21.3642 25.4513C21.4694 25.5416 21.6046 25.5867 21.7248 25.5566C21.845 25.5416 21.9351 25.4363 22.0102 25.301C22.0853 25.1656 22.1304 25.0002 22.1304 24.8799C22.1304 24.7446 22.0853 24.6543 22.0403 24.5791C21.9802 24.5039 21.9201 24.4438 21.86 24.3987C21.7999 24.3536 21.7698 24.2934 21.7548 24.2182C21.7398 24.143 21.7548 24.0528 21.8149 23.9024C21.875 23.752 21.86 23.6167 21.8149 23.5114C21.7698 23.4062 21.7098 23.3159 21.6497 23.2558C21.5896 23.1956 21.5295 23.0453 21.4694 22.8347C21.4243 22.6242 21.3943 22.3685 21.3943 22.1279C21.3943 21.8873 21.3792 21.6016 21.3041 21.346C21.229 21.1053 21.1239 20.8948 20.9736 20.8046C21.4093 20.7745 21.905 20.7444 22.3407 20.6091C22.7764 20.4737 23.167 20.2482 23.3923 19.8572C23.197 19.8121 22.9116 19.8422 22.5661 19.7369ZM21.1689 20.2031C20.7783 20.1128 20.4478 19.9474 20.2826 19.7519C20.1924 19.6467 20.0723 19.5414 19.9521 19.4662C19.8169 19.391 19.6817 19.3309 19.5465 19.2857C19.4113 19.2557 19.2009 19.1654 18.9756 19.0752C18.7502 18.985 18.5399 18.8797 18.4047 18.8196C18.3747 18.8797 18.3146 18.9549 18.2244 19.0451C18.1343 19.1354 18.0141 19.2557 17.8639 19.376C17.7287 19.4963 17.6986 19.6015 17.6986 19.6767C17.7137 19.7519 17.7738 19.8271 17.8038 19.8873C17.8489 19.9474 18.0141 20.0828 18.1944 20.2482C18.3747 20.3986 18.57 20.5489 18.6301 20.6241C18.4197 20.6241 18.2695 20.6091 18.0892 20.5489C17.909 20.4888 17.7137 20.3835 17.3832 20.173C17.0527 19.9625 16.9475 19.7519 16.9475 19.5564C16.9475 19.376 17.0376 19.2106 17.0827 19.1504C17.1278 19.0903 17.248 18.985 17.3681 18.8948C17.4883 18.8045 17.6085 18.7143 17.6536 18.6692C17.6986 18.6241 17.7437 18.579 17.7287 18.5338C17.7287 18.4887 17.6836 18.4587 17.6085 18.4737C17.0527 18.5639 16.6621 18.7143 16.4067 18.8797C16.1513 19.0451 16.0461 19.2106 16.0311 19.3309C16.0161 19.4512 16.0461 19.5564 16.0912 19.6617C16.1363 19.767 16.2264 19.8722 16.3466 19.9775C16.4668 20.0828 16.5118 20.2331 16.4968 20.3685C16.4968 20.5038 16.4367 20.6241 16.3766 20.6993C16.3015 20.7745 16.2715 20.8196 16.2414 20.8647C16.2114 20.9099 16.1964 21.0001 16.1513 21.1505C16.1062 21.3008 16.0762 21.5866 16.0612 21.9024C16.0461 22.2182 16.0461 22.534 16.0612 22.7595C16.1363 22.6392 16.2414 22.534 16.3466 22.4588C16.4517 22.3836 16.5719 22.3385 16.647 22.3084C16.7071 22.8949 16.6771 23.3009 16.617 23.6017C16.5719 23.9024 16.4818 24.0979 16.4367 24.2633C16.4217 24.3084 16.4067 24.3385 16.3766 24.3235C16.3466 24.3235 16.3165 24.2934 16.3015 24.2333C16.2565 24.0979 16.1813 23.8874 16.0912 23.6919C16.0011 23.4964 15.8959 23.3159 15.7907 23.2257C15.5053 22.94 15.3701 22.7896 15.31 22.6693C15.2499 22.549 15.2649 22.4588 15.2649 22.2783C14.8143 22.0527 14.664 21.7821 14.664 21.5114C14.664 21.2557 14.7992 21.0151 14.9194 20.8347C15.0396 20.6692 15.1297 20.4587 15.2049 20.2632C15.28 20.0677 15.31 19.9023 15.325 19.797C15.3401 19.6918 15.28 19.4963 15.2049 19.3008C15.1147 19.1053 15.0096 18.8948 14.8743 18.7444C14.8443 18.7293 14.7692 18.7143 14.6791 18.7293C14.5889 18.7444 14.4988 18.7895 14.4387 18.9248C14.3786 19.0602 14.2885 19.1354 14.2133 19.1654C14.1232 19.1955 14.0331 19.2106 13.9429 19.1955C13.8528 19.1805 13.7326 19.1805 13.6275 19.1955C13.5223 19.2106 13.4171 19.2707 13.342 19.376C13.2669 19.4812 13.1768 19.4812 13.0716 19.4512C12.9815 19.4211 12.8763 19.3609 12.8012 19.3158C12.7261 19.2857 12.681 19.2406 12.6209 19.2106C12.5608 19.1805 12.4857 19.1654 12.3205 19.1805C12.1552 19.1955 12.0951 19.3008 12.0501 19.4361C11.99 19.5564 11.9449 19.6918 11.8097 19.7218C11.6745 19.767 11.5693 19.6918 11.5092 19.5414C11.4491 19.391 11.4341 19.1805 11.4341 18.9549C11.389 18.6692 11.4942 18.218 11.6294 17.797C11.7646 17.3759 11.9299 16.9849 12.02 16.7894C12.0951 16.5939 12.2303 16.233 12.3505 15.812C12.4857 15.4059 12.6059 14.9548 12.696 14.6089C12.7862 14.263 12.9815 14.0074 13.2369 13.7668C13.4922 13.5262 13.7627 13.3156 14.018 13.06C14.2734 12.8043 14.5739 12.5788 14.8743 12.4134C15.1748 12.2479 15.4753 12.1427 15.7006 12.1427C15.926 12.1427 16.1663 12.278 16.3616 12.4134C16.5569 12.5637 16.7222 12.7141 16.7973 12.8043C16.8724 12.8946 16.9475 13.0901 17.0226 13.3006C17.0977 13.5111 17.1728 13.7367 17.263 13.872C17.3531 14.0074 17.4282 14.2029 17.4883 14.4435C17.5484 14.6841 17.6085 14.9548 17.6536 15.2104C17.6986 15.4811 17.8038 15.6616 17.909 15.812C18.0141 15.9623 18.1343 16.0826 18.2094 16.218C18.2845 16.3533 18.3747 16.6691 18.4798 17.015C18.585 17.3609 18.7202 17.7519 18.8855 18.0075C19.0507 18.2632 19.3061 18.4436 19.5615 18.5489C19.8169 18.6692 20.0572 18.7143 20.1774 18.7594C20.2976 18.7895 20.3877 18.8045 20.4779 18.8496C20.568 18.8948 20.6732 18.985 20.8234 19.1654C21.0337 19.406 21.3492 19.6166 21.6497 19.767C21.9501 19.9173 22.2205 20.0076 22.3407 20.0527C21.9952 20.2783 21.5595 20.2783 21.1689 20.2031Z" fill="white"/>
<path d="M6.20616 5.22518L5.7705 5.34548L5.63529 7.36058L6.04091 7.24028L6.05593 6.81921L6.73196 6.62372L6.95731 6.96959L7.37794 6.84929L6.20616 5.22518ZM6.07096 6.48837L6.101 5.69136L6.53666 6.35303L6.07096 6.48837Z" fill="white"/>
<path d="M11.8848 5.57105C11.8698 5.3906 11.7796 5.21014 11.5393 5.14999C11.6144 5.10487 11.7646 5.01465 11.7195 4.72892C11.7045 4.53343 11.5543 4.26274 11.0886 4.30786L10.1722 4.41312L10.3825 6.30792L11.1787 6.21769C11.5693 6.17257 11.6595 6.09738 11.7496 5.97708C11.8548 5.87181 11.8998 5.72143 11.8848 5.57105ZM10.5928 4.69885L11.0435 4.65373C11.2238 4.63869 11.344 4.66877 11.359 4.81915C11.374 4.96953 11.2538 5.04472 11.1036 5.05976L10.6379 5.10487L10.5928 4.69885ZM11.2088 5.87181L10.728 5.93197L10.6679 5.42067L11.1637 5.36052C11.2989 5.34548 11.4491 5.3906 11.4792 5.55602C11.5092 5.76655 11.4041 5.85678 11.2088 5.87181Z" fill="white"/>
<path d="M13.357 4.09732C13.1017 4.11236 12.4557 4.24771 12.4857 5.13495C12.5158 6.02219 13.1918 6.11242 13.4322 6.09738C13.6875 6.08235 14.3335 5.947 14.3035 5.05976C14.2734 4.15748 13.5974 4.08229 13.357 4.09732ZM13.4171 5.76655C13.2068 5.78158 12.8913 5.66128 12.8763 5.11991C12.8613 4.59358 13.1467 4.4432 13.3721 4.42816C13.5824 4.41312 13.8979 4.53343 13.9129 5.0748C13.9279 5.60113 13.6275 5.75151 13.4171 5.76655Z" fill="white"/>
<path d="M16.4968 5.63121C16.5118 5.27029 16.4217 5.21014 16.2715 5.13495C16.4668 5.0748 16.5719 4.89434 16.5719 4.68381C16.5719 4.51839 16.4968 4.14244 15.986 4.1274L15.0246 4.09733L14.9645 6.00716L15.3551 6.02219L15.3851 5.27029L15.7907 5.28533C16.0912 5.30037 16.0912 5.3906 16.0912 5.66128C16.0912 5.85678 16.0912 5.96204 16.1212 6.05227L16.5569 6.06731V6.02219C16.4818 5.97708 16.4818 5.90189 16.4968 5.63121ZM15.8659 4.96953L15.4001 4.95449L15.4152 4.4432L15.9109 4.45824C16.1363 4.45824 16.1813 4.60862 16.1813 4.71388C16.1663 4.90938 16.0612 4.98457 15.8659 4.96953Z" fill="white"/>
</g>
</svg>
