<svg width="32" height="40" viewBox="0 0 32 40" fill="none" xmlns="http://www.w3.org/2000/svg">
<g id="Vector">
<path d="M18.2206 29.4107C18.4491 29.236 18.9598 29.0612 19.2421 28.9403C19.2286 28.5102 19.0539 28.107 19.1614 27.7441C19.3496 27.099 19.7931 26.8168 20.2232 26.763C20.2501 26.7765 20.2769 26.8302 20.2501 26.8437C20.0082 27.0721 19.9141 27.3947 19.8738 27.7441C19.8603 27.8785 19.8334 28.2952 19.9544 28.5908C20.2097 28.4564 20.828 28.2414 21.0296 28.2011C21.0565 27.771 21.1237 27.3544 21.2446 27.0453C21.4865 26.4405 22.0241 25.9566 22.5617 26.2389C22.5886 26.2523 22.6155 26.3061 22.5886 26.3195C22.2526 26.4405 22.0376 26.7899 21.8494 27.1931C21.7957 27.3141 21.6075 27.9592 21.8225 28.0936C21.8225 28.0936 21.836 28.0936 21.836 28.107C22.2257 28.0264 22.2929 28.0667 22.7096 28.0264C22.7768 27.6097 22.9649 27.2468 23.1262 26.9781C23.3681 26.5077 23.9998 26.1313 24.5643 26.4673C24.5912 26.4808 24.6181 26.548 24.5777 26.548C24.188 26.6286 23.9326 26.884 23.7982 27.1124C23.731 27.22 23.3681 27.7172 23.5563 27.9188C23.5697 27.9188 23.5966 27.9188 23.6235 27.9188C23.9595 27.9054 24.2014 27.9726 24.5509 28.0398C24.6584 27.7844 24.7525 27.7576 24.86 27.6232C25.2497 27.1528 25.9083 26.9915 26.1368 27.435C26.1636 27.4619 26.1636 27.5156 26.1368 27.5156C25.9352 27.5425 25.5992 27.65 25.4379 27.8516C25.3976 27.892 25.29 28.0129 25.1825 28.2414C25.6395 28.5908 25.8948 28.8731 26.0158 29.3435C26.0427 29.4241 26.083 29.908 25.9217 29.666C25.1825 28.7387 24.188 28.5371 22.6961 28.6849C21.0968 28.8328 20.3576 29.0747 18.7582 29.9348C19.6453 30.7278 18.3147 31.5073 18.0997 30.338C17.3202 31.5208 16.5003 30.0289 17.5486 29.8139C16.4734 28.7656 17.9384 28.2817 18.2206 29.4107Z" fill="white"/>
<path d="M20.9489 24.3035C21.5269 24.1153 22.1585 23.9137 22.4811 23.8465C22.5349 22.9058 23.4219 21.7365 24.4702 22.1397C24.5105 22.1531 24.5374 22.2069 24.4971 22.2203C24.2283 22.301 23.3681 23.1208 23.6638 23.6449C23.8789 23.6584 24.4702 23.6449 24.6449 23.6584C24.8734 22.6235 25.7739 21.8978 26.7953 22.3682C26.8356 22.3816 26.8625 22.4488 26.8222 22.4488C26.419 22.516 25.5051 23.1611 25.6126 23.7121C25.8008 23.7256 26.3115 23.9003 26.634 24.075C26.755 23.8197 26.8894 23.7256 27.0104 23.5912C27.4539 23.1208 28.3678 23.0805 28.6366 23.5374C28.6635 23.5643 28.6635 23.6181 28.6366 23.6181C28.2468 23.6046 27.8974 23.6584 27.5614 23.9541C27.5076 23.9944 27.4001 24.1557 27.2792 24.3841C27.6017 24.5589 27.9646 24.8949 28.0318 25.2174C28.0856 25.3787 28.1124 25.5131 28.0856 25.6744C28.0721 25.7147 27.9915 25.6744 27.9646 25.6475C27.1179 24.7201 25.2497 24.1422 23.4353 24.3707C22.2257 24.5185 21.043 24.8545 20.0619 25.2846C20.3979 24.9889 20.6936 24.6664 20.9489 24.3035ZM18.2878 26.4001C18.2072 26.4808 18.1266 26.548 18.0594 26.6286C18.4894 27.22 17.804 27.6904 17.6024 27.099C17.0917 27.6501 16.6885 27.0049 17.0245 26.7361C17.4546 26.6689 17.8846 26.5614 18.2878 26.4001Z" fill="white"/>
<path d="M17.9922 34.3297C18.1131 34.1953 18.4088 33.9399 18.5566 33.819C18.0997 33.1067 18.355 32.1928 18.7986 32.1256C18.8254 32.139 18.8389 32.1793 18.8254 32.2062C18.7045 32.3809 18.6507 33.3217 19.0002 33.5233C19.1749 33.4023 19.5109 33.1604 19.6587 33.1201C19.4034 32.26 19.8469 31.1041 20.707 31.2923C20.7339 31.3057 20.7473 31.3595 20.7339 31.3729C20.035 31.7358 20.0216 32.811 20.2098 32.9319C20.492 32.8513 20.8011 32.7304 21.1102 32.7035C21.2446 31.5611 22.2526 31.0504 22.7633 31.346C22.7902 31.3595 22.8037 31.4267 22.7902 31.4267C22.508 31.2654 21.4462 32.354 21.7957 32.6766C22.0376 32.6632 22.3198 32.7707 22.6021 32.8379C22.723 32.2062 23.6101 31.682 23.9864 32.0852C24.0133 32.1121 24.0133 32.1659 23.9998 32.1659C23.6638 32.2331 23.2203 32.5422 23.1531 33.1335C23.8654 33.4695 23.7848 34.1684 23.6638 33.9803C22.9918 33.0932 21.5672 33.2411 20.4785 33.4695C19.8469 33.6039 18.9598 34.2087 18.5835 34.6388C19.7259 35.1764 18.691 36.1844 18.2072 35.042C17.4142 36.4398 16.6347 35.163 17.5621 34.7867C16.4331 33.9131 17.6024 33.3217 17.9922 34.3297Z" fill="white"/>
<path d="M6.48756 33.2679C5.35861 31.9643 4.40437 30.5531 3.63829 29.1284H16.003V33.2679H6.48756Z" fill="white"/>
<path d="M21.9569 13.0408H31.0423V16.6024H21.9569V13.0408Z" fill="white"/>
<path d="M31.0423 7.63797L28.3544 6.68373L25.2229 6.05206L21.7016 5.28598L18.4357 5.03062H15.9493V8.78036H31.0289L31.0423 7.63797Z" fill="white"/>
<path d="M3.06038 3.43127C3.42326 3.31031 3.78613 3.20279 4.16245 3.09527C4.29685 3.05495 4.43125 3.01463 4.57909 2.98775C4.72693 2.96087 4.87477 2.94743 5.02261 2.98775L5.07637 3.01463C5.13013 3.04151 5.15701 3.08183 5.18389 3.13559C5.22421 3.22967 5.23765 3.32375 5.25109 3.43127C5.27797 3.6463 5.27797 3.86134 5.25109 4.07638C5.23765 4.2511 5.21077 4.42582 5.14357 4.57366C5.11669 4.64086 5.07637 4.69462 5.02261 4.74838C4.98229 4.7887 4.94197 4.82902 4.90165 4.8559C4.80757 4.9231 4.72693 4.97686 4.61941 5.01718C4.37749 5.1247 4.13557 5.20534 3.88021 5.28598C3.45014 5.43382 3.02006 5.58166 2.58998 5.7295V6.52245C2.37494 6.60309 2.1599 6.69717 1.94486 6.77781V3.79414C2.32118 3.67318 2.68406 3.55222 3.06038 3.43127ZM2.58998 5.1919C3.02006 5.04406 3.45014 4.89622 3.89365 4.74838C4.02805 4.70806 4.16245 4.66774 4.28341 4.61398L4.37749 4.56022L4.41781 4.53334L4.49845 4.4527L4.52533 4.41238L4.56565 4.33174C4.57909 4.27798 4.59253 4.23766 4.59253 4.1839C4.60597 4.0495 4.60597 3.92854 4.56565 3.79414L4.53877 3.72694L4.51189 3.67318L4.47157 3.63286L4.41781 3.60598L4.36405 3.59254H4.25653C4.12213 3.60598 4.00117 3.6463 3.86677 3.68662C3.4367 3.82102 3.00662 3.96886 2.57654 4.10326L2.58998 5.1919ZM8.06004 2.07383C8.35572 2.02007 8.63796 1.96631 8.93363 1.93943C9.02771 1.92599 9.12179 1.92599 9.21587 1.92599C9.25619 1.92599 9.30995 1.93943 9.35027 1.95287C9.39059 1.96631 9.41747 1.97975 9.45779 2.00663C9.48467 2.03351 9.51155 2.04695 9.53843 2.07383C9.56531 2.10071 9.57875 2.14103 9.59219 2.16791C9.61907 2.22167 9.63251 2.26199 9.63251 2.31575C9.65939 2.49047 9.67283 2.67863 9.68627 2.86679C9.69971 3.08183 9.69971 3.28343 9.68627 3.48503C9.68627 3.56566 9.68627 3.65974 9.67283 3.74038C9.65939 3.90166 9.65939 4.06294 9.61907 4.22422C9.60563 4.26454 9.59219 4.30486 9.57875 4.33174C9.55187 4.3855 9.52499 4.43926 9.48467 4.49302L9.40403 4.61398L9.28307 4.69462C9.22931 4.7215 9.18899 4.73494 9.13523 4.76182C8.92019 4.82902 8.70515 4.86934 8.49012 4.9231C8.0466 5.01718 7.60308 5.09782 7.15956 5.1919C6.94452 5.23222 6.72948 5.27254 6.51444 5.29942C6.46068 5.31286 6.39348 5.31286 6.33972 5.31286L6.20532 5.29942C6.165 5.28598 6.13813 5.27254 6.11125 5.2591L6.04405 5.20534L5.99029 5.1247L5.90965 4.68118V3.48503C5.92309 3.35063 5.93653 3.20279 5.96341 3.06839L6.00373 2.94743C6.03061 2.88023 6.05748 2.82647 6.0978 2.77271L6.19188 2.66519L6.27252 2.59799C6.35316 2.54423 6.44724 2.49047 6.55476 2.45015L7.0386 2.30231C7.34772 2.20823 7.69716 2.14103 8.06004 2.07383ZM7.72404 2.67863L7.02516 2.83991C6.9714 2.85335 6.91764 2.88023 6.86388 2.89367L6.75636 2.97431L6.6354 3.09527L6.60852 3.14903C6.58164 3.18935 6.5682 3.24311 6.55476 3.28343C6.51444 3.45815 6.51444 3.63286 6.51444 3.80758C6.51444 3.99574 6.51444 4.1839 6.54132 4.35862L6.5682 4.42582L6.60852 4.49302L6.66228 4.54678L6.71604 4.5871L6.78324 4.61398L6.85044 4.62742H6.93108C6.98484 4.62742 7.02516 4.62742 7.06548 4.61398C7.33428 4.57366 7.60308 4.5199 7.87188 4.46614C8.08692 4.42582 8.3154 4.37206 8.53044 4.3183C8.57076 4.30486 8.62452 4.29142 8.66484 4.27798L8.79923 4.19734L8.90675 4.08982L8.94707 4.02262L9.00083 3.88822C9.04115 3.68662 9.02771 3.49847 9.02771 3.29687C9.02771 3.18935 9.02771 3.08183 9.01427 2.98775L9.00083 2.90711C8.98739 2.85335 8.97395 2.79959 8.94707 2.74583L8.92019 2.69207L8.89331 2.65175L8.85299 2.61143L8.77235 2.57111L8.71859 2.55767L8.61108 2.54423C8.49012 2.54423 8.3826 2.55767 8.27508 2.57111C8.08692 2.61143 7.89876 2.65175 7.72404 2.67863ZM12.1592 1.57655C12.4952 1.54967 12.8312 1.52279 13.1672 1.52279C13.2344 1.52279 13.3151 1.52279 13.3823 1.52279C13.4629 1.52279 13.5301 1.53623 13.5973 1.57655C13.6242 1.58999 13.6511 1.60343 13.6645 1.61687C13.7183 1.65719 13.7586 1.69751 13.7855 1.76471C13.8123 1.80503 13.8258 1.85879 13.8392 1.89911C13.8661 2.00663 13.8661 2.12759 13.8661 2.23511C13.8661 2.38295 13.8661 2.51735 13.8527 2.66519C13.8527 2.71895 13.8392 2.77271 13.8258 2.82647L13.7989 2.88023C13.772 2.92055 13.7586 2.94743 13.7317 2.98775L13.6645 3.04151C13.6376 3.05495 13.6107 3.08183 13.5704 3.09527C13.5301 3.10871 13.4763 3.12215 13.436 3.13559L13.0731 3.21623L13.436 3.41783C13.4898 3.45815 13.5301 3.48503 13.5704 3.52534L13.6107 3.5791C13.6645 3.65974 13.7048 3.74038 13.7451 3.83446C13.7989 3.99574 13.8258 4.15702 13.8258 4.3183C13.6107 4.33174 13.3957 4.33174 13.1807 4.34518C13.1672 4.22422 13.1538 4.1167 13.1135 3.99574L13.0328 3.79414L12.9522 3.68662L12.8984 3.6463L12.8312 3.60598C12.7909 3.59254 12.7506 3.5791 12.7103 3.5791C12.6296 3.56566 12.5355 3.5791 12.4549 3.5791C12.0383 3.60598 11.6351 3.6463 11.2184 3.68662L11.0571 3.70006V4.49302C10.8421 4.5199 10.6271 4.54678 10.412 4.56022V1.73783C11.0034 1.67063 11.5813 1.61687 12.1592 1.57655ZM11.0706 3.21623C11.5007 3.17591 11.9307 3.13559 12.3608 3.10871C12.5087 3.09527 12.6565 3.08183 12.8043 3.06839C12.8447 3.06839 12.885 3.05495 12.9253 3.04151L12.9791 3.02807L13.0328 3.00119L13.0731 2.97431L13.1135 2.93399L13.1672 2.85335C13.1807 2.81303 13.1941 2.78615 13.1941 2.74583C13.2075 2.62487 13.2075 2.50391 13.2075 2.38295C13.2075 2.34263 13.1941 2.30231 13.1807 2.24855L13.1269 2.16791L13.0866 2.12759L13.0059 2.07383L12.9522 2.06039C12.9119 2.04695 12.8715 2.04695 12.8312 2.04695C12.6162 2.04695 12.4011 2.07383 12.1995 2.08727C11.8232 2.11415 11.4603 2.15447 11.084 2.18135L11.0706 3.21623ZM15.6402 3.87478C15.8821 3.87478 16.124 3.87478 16.3794 3.87478C16.5406 3.87478 16.7154 3.87478 16.8901 3.86134C16.9304 3.86134 16.9573 3.8479 16.9976 3.8479C17.0379 3.83446 17.0648 3.82102 17.0917 3.80758L17.132 3.7807L17.1858 3.70006L17.1992 3.65974L17.2126 3.56566V3.43127L17.1858 3.28343L17.1589 3.20279L17.132 3.16247L17.0514 3.10871L16.9573 3.08183L16.796 3.05495H15.237C15.1026 3.05495 14.9682 3.05495 14.8472 3.02807C14.8069 3.01463 14.78 3.01463 14.7531 3.00119L14.6725 2.94743L14.6456 2.92055L14.5919 2.83991C14.565 2.78615 14.5381 2.73239 14.5246 2.67863C14.4978 2.53079 14.4978 2.36951 14.4978 2.22167C14.4978 2.03351 14.5112 1.84535 14.5919 1.67063C14.6053 1.64375 14.6322 1.61687 14.6456 1.58999C14.7397 1.50935 14.8607 1.46903 14.9816 1.44215C15.1026 1.41527 15.237 1.41527 15.3579 1.41527C15.6536 1.41527 15.9493 1.41527 16.245 1.41527C16.7288 1.41527 17.2261 1.42871 17.7099 1.44215V1.87223C17.0648 1.85879 16.4197 1.84535 15.7746 1.84535C15.6267 1.84535 15.4789 1.84535 15.331 1.85879C15.3042 1.85879 15.2638 1.87223 15.237 1.87223L15.1832 1.89911L15.1429 1.93943L15.116 1.99319L15.1026 2.04695L15.0891 2.14103C15.0891 2.22167 15.0891 2.28887 15.0891 2.36951L15.116 2.47703L15.1563 2.53079L15.2235 2.57111L15.2907 2.58455C15.9627 2.59799 16.6482 2.61143 17.3202 2.63831L17.4008 2.65175C17.5083 2.67863 17.6158 2.71895 17.6965 2.79959C17.7368 2.83991 17.7637 2.88023 17.7771 2.92055C17.8443 3.06839 17.8578 3.24311 17.8578 3.40439C17.8578 3.59254 17.8578 3.7807 17.804 3.95542C17.7906 3.9823 17.7906 4.00918 17.7771 4.03606L17.7368 4.08982C17.7099 4.13014 17.683 4.15702 17.6427 4.1839C17.5755 4.22422 17.5083 4.26454 17.4411 4.27798C17.3336 4.30486 17.2126 4.30486 17.1051 4.3183C16.7691 4.33174 16.4466 4.33174 16.1106 4.33174C15.5864 4.33174 15.0622 4.34518 14.5515 4.34518C14.5515 4.19734 14.5515 4.03606 14.5515 3.88822C14.901 3.87478 15.2504 3.87478 15.5998 3.87478H15.6402ZM20.0888 4.46614C19.82 4.43926 19.5378 4.42582 19.269 4.3855C19.148 4.37206 19.027 4.34518 18.9195 4.30486C18.8658 4.27798 18.812 4.26454 18.7582 4.22422C18.7179 4.19734 18.691 4.17046 18.6507 4.14358C18.6238 4.1167 18.597 4.07638 18.5701 4.0495C18.5432 4.00918 18.5298 3.96886 18.5163 3.92854C18.476 3.7807 18.4626 3.61942 18.4626 3.45815C18.4491 3.06839 18.4491 2.69207 18.4626 2.30231V2.20823C18.476 2.03351 18.4894 1.85879 18.597 1.71095C18.6373 1.67063 18.6642 1.63031 18.7179 1.60343C18.8523 1.53623 19.0136 1.50935 19.1614 1.49591C19.3227 1.48247 19.4706 1.48247 19.6318 1.49591C19.9409 1.50935 20.2635 1.52279 20.5726 1.54967C21.0296 1.58999 21.4731 1.63031 21.9301 1.68407V2.19479C21.3253 2.14103 20.7339 2.08727 20.1291 2.04695C19.941 2.03351 19.7394 2.02007 19.5378 2.03351L19.4437 2.04695L19.3765 2.06039L19.3227 2.08727L19.269 2.12759L19.2152 2.18135L19.1749 2.23511L19.148 2.30231C19.1346 2.34263 19.1211 2.38295 19.1211 2.42327C19.0942 2.61143 19.0808 2.81303 19.0942 3.01463C19.0942 3.17591 19.0942 3.33719 19.1211 3.49846C19.1346 3.53878 19.1346 3.5791 19.148 3.61942L19.1749 3.68662L19.2152 3.74038L19.269 3.79414L19.3227 3.83446L19.3765 3.86134L19.4437 3.88822C19.4974 3.90166 19.5512 3.9151 19.605 3.9151C19.7797 3.94198 19.9678 3.95542 20.1425 3.96886C20.7473 4.02262 21.3656 4.07638 21.9704 4.14358C21.9704 4.30486 21.9704 4.4527 21.9704 4.61398V4.66774C21.5941 4.62742 21.2043 4.5871 20.828 4.56022C20.5995 4.50646 20.3441 4.49302 20.0888 4.46614ZM24.2014 3.18935C24.6987 3.28343 25.196 3.37751 25.6932 3.47159V2.32919C25.9217 2.38295 26.1502 2.43671 26.3921 2.47703V5.42038C26.1636 5.36662 25.9352 5.31286 25.6932 5.2591V4.10326C25.29 4.02262 24.9003 3.94198 24.4971 3.86134C24.1342 3.79414 23.7579 3.72694 23.395 3.65974V4.80214C23.1665 4.76182 22.9381 4.73494 22.6961 4.69462V1.83191C22.9246 1.85879 23.1665 1.88567 23.395 1.92599V3.05495C23.6638 3.09527 23.9326 3.13559 24.2014 3.18935ZM29.4833 3.37751C29.7252 3.45814 29.9671 3.53878 30.2225 3.61942V4.10326C29.5102 3.86134 28.7844 3.63286 28.0587 3.40439L27.8168 3.33719V4.07638C28.3409 4.23766 28.8785 4.39894 29.4027 4.57366C29.6312 4.6543 29.8731 4.7215 30.1015 4.80214V5.23222C29.4296 5.00374 28.7441 4.7887 28.0587 4.5871L27.8168 4.5199V5.29942C28.3275 5.44726 28.8382 5.60854 29.3355 5.76982C29.6312 5.8639 29.9268 5.97142 30.2359 6.06549V6.56277C29.2683 6.24021 28.2872 5.94454 27.2926 5.6623L27.1851 5.63542V2.67863C27.9512 2.89367 28.7172 3.13559 29.4833 3.37751Z" fill="white"/>
<path d="M1.90454 25.0024C1.47446 23.5643 1.24598 22.2203 1.23254 21.0645H10.2373C10.2642 22.5832 10.8959 23.9809 11.8904 25.0024H1.90454Z" fill="white"/>
<path d="M0.829346 3.29687L1.00406 3.22967C6.03061 1.37495 11.0437 0.407277 16.0702 0.313197C21.0968 0.232558 26.1099 1.02551 31.1364 2.71895L31.3246 2.78615V2.97431C31.2843 9.00884 31.2439 15.0434 31.2036 21.0779C31.1902 24.196 29.5505 28.5774 26.4593 32.4078C23.9729 35.499 20.5323 38.2407 16.2315 39.6922H16.0837C11.7426 38.5767 8.3154 35.9425 5.81557 32.8648C2.61686 28.9 0.977185 24.1691 0.963745 20.957C0.936865 18.0405 0.923425 15.124 0.896545 12.221L0.829346 3.29687ZM6.68916 33.1067H15.8283V29.4376H4.10869C4.06837 29.3704 4.02805 29.3032 4.00117 29.236C4.63285 30.3649 5.37205 31.4804 6.21876 32.5422C6.38004 32.7304 6.52788 32.9185 6.68916 33.1067ZM15.8418 33.5636H7.1058C9.36371 36.0366 12.2802 38.0929 15.8418 39.0874V33.5636ZM6.91764 33.362C6.9042 33.3486 6.9042 33.3486 6.9042 33.3352C6.9042 33.3486 6.91764 33.362 6.91764 33.362ZM3.85333 28.9672H15.8418V26.8033C15.9358 26.8033 16.0299 26.8033 16.124 26.8033C16.1912 26.8033 16.245 26.8033 16.3122 26.8033V39.1009C16.2987 39.1009 16.2853 39.1143 16.2853 39.1143C20.371 37.6897 23.6504 35.0555 26.0427 32.0852C29.0129 28.4027 30.5988 24.2094 30.666 21.1989C30.666 21.2123 30.666 21.2123 30.666 21.2258H22.0241C22.0241 21.1317 22.0376 21.0376 22.0376 20.9435V20.7554H30.6795C30.6929 19.4651 30.6929 18.1749 30.7063 16.8981H22.0376V16.4411H30.7063C30.7198 15.3928 30.7198 14.3579 30.7332 13.3231H22.0376V12.8661H21.9704V12.8527H30.7332C30.7467 11.5893 30.7467 10.3394 30.7601 9.07604H16.1778V12.8661H15.7074V5.24566C10.9227 5.3263 6.12468 6.28053 1.31318 8.14869L1.29974 7.66485C6.24564 5.75638 11.1915 4.81558 16.124 4.77526C21.0161 4.73494 25.8948 5.58166 30.7601 7.26165C30.7601 7.42293 30.7601 7.58421 30.7601 7.74549C30.7735 6.21333 30.787 4.68118 30.787 3.16247C25.8814 1.53623 20.9758 0.770156 16.0837 0.850795C11.1109 0.931435 6.15157 1.88567 1.19222 3.72694L1.43414 12.221C1.46102 15.0703 1.47446 17.9195 1.50134 20.7822C1.50134 20.7822 1.50134 20.7822 1.50134 20.7688H10.2507V20.957C10.2507 21.051 10.2507 21.1451 10.2642 21.2392H1.4879C1.51478 22.3144 1.74326 23.5643 2.13302 24.8814C2.13302 24.868 2.11958 24.8545 2.11958 24.8411H11.7157C11.7963 24.9352 11.877 25.0293 11.9711 25.1099L12.2667 25.3115H2.26742C2.65718 26.4942 3.18134 27.7307 3.85333 28.9672ZM2.24054 25.2174C2.2271 25.1905 2.2271 25.1637 2.21366 25.1502C2.2271 25.1771 2.24054 25.1905 2.24054 25.2174ZM2.18678 25.0427C2.17334 25.0158 2.17334 24.9889 2.1599 24.9621C2.17334 24.9889 2.18678 25.0158 2.18678 25.0427ZM30.6526 20.957V20.9704C30.6526 20.9704 30.6526 20.9704 30.6526 20.957ZM30.6526 21.0376V21.051C30.6526 21.051 30.6526 21.051 30.6526 21.0376ZM30.6526 21.0376C30.6526 21.0242 30.6526 21.0242 30.6526 21.0242V21.0376ZM30.6526 20.9973C30.6526 20.9838 30.6526 20.9838 30.6526 20.9838V20.9973ZM30.6526 20.7957C30.6526 20.7822 30.6526 20.7822 30.6526 20.7822V20.7957ZM16.1778 8.61909H30.7467C30.7467 8.69973 30.7467 8.76692 30.7467 8.84756C30.7467 8.48469 30.7467 8.12181 30.7467 7.75893C25.8948 6.0655 21.043 5.21878 16.1778 5.24566V8.61909ZM16.1509 39.1546C16.1374 39.1546 16.1374 39.1546 16.124 39.1681C16.1374 39.1681 16.1374 39.1681 16.1509 39.1546ZM15.9627 39.1278C15.9224 39.1143 15.8955 39.1143 15.8552 39.1009C15.8955 39.1009 15.9358 39.1143 15.9627 39.1278Z" fill="white"/>
<path d="M3.39638 10.7292C3.65173 10.5679 3.92053 10.4066 4.18933 10.2722C4.14901 9.85556 4.10869 9.21044 4.21621 8.861C4.41781 8.21589 5.00917 7.69173 5.70805 7.81269C5.74837 7.82613 5.77525 7.86645 5.74837 7.87989C5.35861 8.08149 5.04949 8.39061 4.87477 8.82068C4.82101 8.94164 4.63285 9.8018 4.91509 9.869C4.94197 9.88244 4.96885 9.88244 5.00917 9.88244C5.51989 9.6674 6.04405 9.47924 6.58164 9.31796C6.58164 8.90132 6.59508 8.32341 6.74292 8.01429C7.01172 7.40949 7.68372 6.96597 8.40948 7.18101C8.4498 7.19445 8.47668 7.24821 8.4498 7.26165C8.01972 7.40949 7.67028 7.66485 7.4418 8.06805C7.3746 8.18901 7.09236 9.00884 7.38804 9.11636H7.40148C7.89876 9.00884 8.40948 8.91476 8.96051 8.84756C9.02771 8.43093 9.13523 7.89333 9.32339 7.61109C9.72659 7.01973 10.533 6.61653 11.2856 6.89877C11.3259 6.91221 11.3528 6.96597 11.3125 6.97941C10.8152 7.10037 10.3851 7.32885 10.076 7.71861C9.99539 7.82613 9.57875 8.57876 9.82067 8.75348C9.84755 8.75348 9.87443 8.75348 9.90131 8.74004C10.3314 8.69973 10.8287 8.68629 11.2991 8.71316C11.42 8.45781 11.541 8.22933 11.6754 8.08149C12.1458 7.59765 13.1807 7.42293 13.4898 7.83957C13.5167 7.86645 13.5301 7.92021 13.4898 7.92021C13.0463 7.93365 12.5893 8.00085 12.2533 8.30997C12.1995 8.36373 12.0114 8.55189 11.9039 8.76692C12.6162 8.88788 13.221 9.1298 13.4091 9.58676C13.4763 9.7346 13.5167 9.869 13.4898 10.0303C13.4898 10.0706 13.3957 10.0437 13.3688 10.0034C12.4683 9.17012 11.0303 9.07604 9.10835 9.41204C7.15956 9.74804 5.53333 10.326 3.78613 11.1592C4.48501 11.9522 3.38294 12.557 3.02006 11.7237C2.17334 12.7317 1.39382 11.2668 2.54966 11.092C1.8911 10.0706 3.22166 10.0303 3.39638 10.7292Z" fill="white"/>
<path d="M3.6383 18.7662C3.86677 18.5915 4.16245 18.4437 4.40437 18.2958C4.16245 17.9061 4.01461 17.3416 4.10869 16.9787C4.26997 16.3336 4.67317 16.0245 5.17045 16.0514C5.21077 16.0514 5.23765 16.1051 5.21077 16.1186C4.86133 16.3471 4.80757 16.6427 4.70005 17.0863C4.64629 17.3282 4.78069 17.7314 4.95541 17.8792C5.39893 17.6373 5.38549 17.6776 5.85589 17.5029C5.72149 17.0863 5.74837 16.5218 5.92309 16.1723C6.19188 15.6079 6.6354 15.3928 7.07892 15.4869C7.11924 15.5003 7.14612 15.5407 7.1058 15.5541C6.75636 15.7019 6.04405 16.2664 6.51444 17.3282C6.94452 17.1803 6.9714 17.1535 7.52244 17.0325C7.56276 16.6159 7.5762 16.1186 7.73748 15.8229C8.07348 15.2181 8.86643 14.9359 9.22931 15.0837C9.26963 15.0971 9.29651 15.1509 9.25619 15.1643C9.05459 15.2987 8.78579 15.4063 8.51699 15.8095C8.36916 16.0245 8.1138 16.5218 8.181 16.8578C8.57076 16.804 9.08147 16.7771 9.52499 16.7906C9.61907 16.5352 9.80723 16.2261 9.92819 16.0783C10.0088 15.9842 10.1163 15.9035 10.2239 15.8632V17.3685C9.48467 17.3282 8.66484 17.4088 7.88532 17.597C6.12469 18.0136 5.66773 18.3362 4.09525 19.1829C5.03605 19.7742 4.12213 20.6747 3.54422 19.7877C2.52278 20.957 1.86422 19.4517 2.92598 19.2232C2.11958 18.2421 3.4367 17.7179 3.6383 18.7662Z" fill="white"/>
<path d="M3.18134 14.7611C3.45014 14.5999 3.81301 14.4789 4.08181 14.3445C4.05493 13.9279 4.00117 13.5515 4.12213 13.2021C4.33717 12.5704 4.67317 12.2479 5.21077 12.3016C5.25109 12.3151 5.27797 12.3554 5.25109 12.3823C4.86133 12.5839 4.95541 12.8527 4.78069 13.2693C4.72693 13.3903 4.59253 13.901 4.87477 13.9816C4.90165 13.9951 4.92853 13.9951 4.96885 13.9951C5.47957 13.7935 5.29141 13.8069 5.81557 13.6725C5.82901 13.2693 5.85589 12.7183 5.99029 12.4226C6.27252 11.8447 6.79668 11.5624 7.28052 11.6834C7.32084 11.6968 7.40148 11.7909 7.36116 11.8044C6.9714 11.9253 6.2994 12.7183 6.58164 13.3365C6.91764 13.2827 7.14612 13.1752 7.75092 13.0946C7.83156 12.6779 7.96596 12.2613 8.16756 11.9791C8.5842 11.4012 9.22931 11.2802 9.60563 11.4549C9.64595 11.4684 9.69971 11.5759 9.65939 11.5893C9.16211 11.6968 9.14867 11.6431 8.82611 12.0328C8.65139 12.2344 8.30196 12.7855 8.55732 13.0408C8.98739 13.0139 9.28307 12.9602 9.75347 13.0005C9.87443 12.7586 9.96851 12.4226 10.1029 12.2882C10.5733 11.8044 11.3931 11.764 11.6619 12.0866C11.6888 12.1135 11.7023 12.1672 11.6619 12.1672C11.2184 12.1807 11.0571 12.3016 10.7077 12.6108C10.6674 12.6376 10.5867 12.7451 10.4927 12.8795H10.2373V13.7128C9.51155 13.6456 8.71859 13.6725 7.9794 13.78C6.0306 14.0757 5.31829 14.5192 3.70549 15.2987C4.39093 16.1051 3.27542 16.6696 2.93942 15.8229C2.07926 16.8175 1.31318 15.3256 2.4959 15.1778C1.83734 14.116 2.99318 13.8338 3.18134 14.7611Z" fill="white"/>
<path d="M21.7419 13.1483V20.957C21.7419 24.0347 19.2286 26.5345 16.124 26.5345C13.0328 26.5345 10.5061 24.0347 10.5061 20.957V13.1483H21.7419ZM22.0107 12.8661H10.2239V20.9435C10.2239 24.1557 12.8715 26.8033 16.1106 26.8033C19.363 26.8033 21.9973 24.1557 21.9973 20.9435L22.0107 12.8661Z" fill="white"/>
<path d="M15.8686 18.5915C15.9224 18.6453 16.0434 18.5781 16.0837 18.5243C16.1778 18.3765 16.1643 18.1883 16.1778 18.0002C16.1912 17.7986 16.1912 17.6238 16.124 17.4357C16.0165 17.1131 15.8686 16.8578 15.5058 16.804C15.4654 16.7906 15.3848 16.8712 15.4117 16.8981C15.6536 17.1535 15.7477 17.14 15.8149 17.5298C15.8821 17.9061 15.8418 18.5646 15.8686 18.5915ZM13.3285 23.2821C13.3823 23.2955 13.5032 23.1342 13.5435 23.0401C13.5839 22.9595 13.5704 22.7982 13.5704 22.7848C13.557 22.7579 13.4226 22.8117 13.3554 22.8117C13.2882 22.8117 13.2344 22.7982 13.1403 22.7848C13.0463 22.7714 13.0597 22.5563 13.0463 22.4354C13.0194 22.1262 13.0059 21.8171 13.0194 21.508C13.0194 21.4274 13.0463 21.3198 13.1135 21.2661C13.2075 21.2123 13.3419 21.2258 13.4495 21.2392C13.6645 21.2795 13.8661 21.387 14.0946 21.4274C14.2155 21.4542 14.3499 21.4408 14.4709 21.4005C14.5784 21.3736 14.6591 21.293 14.7531 21.2526C14.8069 21.2392 14.8741 21.2258 14.9144 21.2526C15.0891 21.3467 15.2101 21.5214 15.3848 21.5886C15.6133 21.6558 15.8552 21.629 16.0971 21.6424C16.2853 21.6424 16.4734 21.6155 16.6616 21.6424C16.7422 21.6558 16.8766 21.6693 16.9035 21.7634C16.9304 21.8843 16.7288 21.9918 16.7557 22.1128C16.8094 22.301 17.0245 22.395 17.1186 22.5563C17.1589 22.6235 17.1454 22.7042 17.1186 22.7714C17.0917 22.8251 16.9976 22.8386 16.9573 22.8923C16.9035 22.9729 16.8901 23.067 16.8363 23.1477C16.7826 23.2283 16.7019 23.2955 16.6213 23.3627C16.4466 23.4971 16.2718 23.6315 16.0702 23.739C16.003 23.7793 15.8821 23.6987 15.8552 23.7659C15.8014 23.8869 15.7477 24.0347 15.6939 24.1153C15.6402 24.196 15.573 24.2094 15.5326 24.2497C15.4923 24.3035 15.4386 24.3976 15.4654 24.411C15.4923 24.4245 15.7477 24.4245 15.8418 24.411C15.9358 24.3976 15.9896 24.3841 16.0165 24.3707C16.0434 24.3438 16.003 24.2632 15.9762 24.1019C15.9627 23.9406 16.4062 23.8734 16.6213 23.7525C16.8498 23.6046 17.0782 23.4433 17.3067 23.3089C17.4008 23.2552 17.5352 23.2417 17.6158 23.1611C17.6562 23.1208 17.6427 23.0536 17.6427 22.9998C17.6427 22.8654 17.6158 22.731 17.6158 22.5966C17.6158 22.5294 17.6158 22.4488 17.6696 22.4085C17.7099 22.3682 17.7906 22.3547 17.8309 22.3816C17.9115 22.4219 17.925 22.5429 17.9922 22.5966C18.0997 22.6773 18.2341 22.7041 18.355 22.7579C18.4626 22.8117 18.6507 22.8117 18.6642 22.9192C18.691 23.1208 18.5566 23.3089 18.476 23.4837C18.4357 23.5777 18.3416 23.6315 18.2878 23.7256C18.261 23.7793 18.261 23.8465 18.2206 23.8869C18.1131 23.9944 17.9653 24.0616 17.8578 24.1691C17.7771 24.2497 17.7099 24.3304 17.6696 24.4245C17.6427 24.4782 17.6293 24.532 17.6024 24.5857C17.5621 24.6395 17.4949 24.6529 17.4546 24.7336C17.4142 24.8142 17.3202 25.0293 17.4008 25.0158C17.4814 25.0024 17.9518 24.9217 17.9653 24.868C17.9787 24.8277 17.9384 24.7067 17.9115 24.5589C17.8846 24.411 18.2206 24.3035 18.3819 24.2094C18.476 24.1557 18.6104 24.1825 18.691 24.1153C18.7448 24.075 18.7179 23.9809 18.7314 23.9272C18.7717 23.8331 18.7986 23.7256 18.8792 23.6449C18.9733 23.5374 19.1346 23.4971 19.2152 23.3896C19.2958 23.2552 19.3899 23.0939 19.363 22.9461C19.3362 22.8251 19.1883 22.7848 19.1077 22.6907C19.0405 22.6235 18.9733 22.5429 18.9464 22.4488C18.9061 22.3144 18.8792 22.18 18.9195 22.0456C18.9733 21.8843 19.1346 21.7768 19.2286 21.6424C19.3093 21.5214 19.4302 21.4274 19.4706 21.293C19.5109 21.1317 19.4302 20.957 19.4168 20.7957C19.4168 20.7688 19.3899 20.7285 19.4168 20.7016C19.5243 20.6075 19.6453 20.4866 19.7931 20.4597C19.9275 20.4462 20.035 20.5806 20.1694 20.6075C20.3038 20.621 20.4651 20.6344 20.5995 20.5806C20.6398 20.5672 20.6533 20.4731 20.6264 20.4328C20.5323 20.3522 20.3307 20.379 20.2904 20.2715C20.2635 20.1774 20.4517 20.1506 20.5054 20.0565C20.5726 19.9355 20.6264 19.8011 20.6264 19.6533C20.6264 19.5995 20.5189 19.5995 20.4785 19.6264C20.4113 19.6667 20.4113 19.7608 20.3576 19.8146C20.3173 19.8549 20.2501 19.8683 20.1963 19.8683C20.1426 19.8683 20.0619 19.8414 20.035 19.8011C19.9947 19.7608 19.9678 19.6667 20.0082 19.6398C20.1157 19.5726 20.2635 19.5995 20.3845 19.5726C20.4382 19.5592 20.5054 19.5458 20.5323 19.5054C20.5726 19.4248 20.5726 19.3307 20.5323 19.2501C20.5189 19.2098 20.4517 19.2098 20.4113 19.2232C20.3576 19.2366 20.3307 19.3173 20.2635 19.3173C20.1829 19.3173 20.1022 19.277 20.0485 19.2232C20.0082 19.1694 19.9947 19.0888 20.0216 19.035C20.0619 18.941 20.1963 18.9141 20.2366 18.82C20.2904 18.699 20.3307 18.5512 20.3038 18.4168C20.2904 18.363 20.1829 18.3362 20.1425 18.3765C20.0753 18.4168 20.0888 18.5109 20.0485 18.5646C19.9947 18.6453 19.9678 18.7662 19.8872 18.8066C19.8334 18.8334 19.7394 18.7797 19.7259 18.7125C19.699 18.605 19.7662 18.4974 19.7931 18.4034C19.8334 18.2958 19.8872 18.1883 19.9544 18.0942C20.0216 18.0002 20.156 17.9598 20.2097 17.8523C20.2501 17.7717 20.2904 17.6642 20.2366 17.597C20.1963 17.5432 20.1022 17.5835 20.0485 17.6238C20.0082 17.6507 20.0216 17.7448 19.9813 17.7717C19.8603 17.8254 19.7125 17.7851 19.605 17.8389C19.5109 17.8926 19.4706 17.9867 19.4168 18.0808C19.3227 18.2421 19.3093 18.5243 19.269 18.5512C19.2286 18.5915 19.1346 18.5781 19.1077 18.5243C19.0674 18.4571 19.1346 18.3496 19.0808 18.2824C19.0405 18.2421 18.933 18.2421 18.8926 18.2824C18.8389 18.3362 18.8254 18.4168 18.8254 18.4974C18.8254 18.6184 18.8389 18.7394 18.8926 18.8469C18.9867 19.0216 19.1346 19.156 19.2555 19.3173C19.3765 19.4786 19.5243 19.6264 19.5915 19.8146C19.6318 19.9355 19.6453 20.0834 19.5915 20.1909C19.5512 20.2984 19.4437 20.4059 19.3362 20.4059C19.1883 20.3925 19.0808 20.2312 18.9598 20.1506C18.8389 20.0699 18.7179 19.9624 18.5835 19.9355C18.2744 19.8818 17.9518 19.9355 17.6293 19.9355C17.347 19.9355 17.0514 19.9758 16.7691 19.9355C16.6347 19.9221 16.4869 19.8683 16.3928 19.7742C16.2987 19.6802 16.2315 19.5458 16.2315 19.4248C16.2181 19.2501 16.2853 19.0888 16.3525 18.9275C16.4062 18.82 16.4869 18.7125 16.5944 18.6453C16.675 18.5915 16.8094 18.5646 16.8901 18.5915C16.9842 18.6318 17.2395 18.9813 17.2933 18.9678C17.347 18.9544 17.3067 18.6453 17.2798 18.5512C17.2261 18.4034 17.0648 18.3227 17.0245 18.1749C17.011 18.1346 17.0782 18.0808 17.1186 18.0808C17.1992 18.0808 17.2933 18.1346 17.3605 18.2018C17.4008 18.2286 17.5755 18.484 17.6158 18.4706C17.6562 18.4571 17.589 18.1077 17.5486 18.0002C17.4814 17.8523 17.2664 17.7448 17.253 17.7045C17.2395 17.6776 17.253 17.6507 17.2933 17.6373C17.3739 17.6373 17.4546 17.6776 17.5352 17.7045C17.6024 17.7314 17.7099 17.812 17.7502 17.7986C17.7906 17.7851 17.7502 17.6642 17.7099 17.6104C17.5621 17.4357 17.3605 17.3282 17.2126 17.1669C17.132 17.0863 17.0514 16.9787 17.0514 16.8578C17.0514 16.7906 17.132 16.7234 17.1992 16.6965C17.3202 16.6427 17.4814 16.6159 17.589 16.5487C17.6293 16.5218 17.6024 16.4949 17.5621 16.4815C17.3874 16.4143 17.1992 16.3874 17.011 16.3874C16.9035 16.3874 16.8094 16.4546 16.7019 16.4815C16.6347 16.5083 16.5675 16.5487 16.4869 16.5487C16.3525 16.5487 16.2046 16.5621 16.1106 16.4815C16.0568 16.4277 16.124 16.3202 16.1643 16.2395C16.2046 16.1723 16.2718 16.132 16.3256 16.0783C16.3659 16.0379 16.4869 15.9976 16.4466 15.9842C16.4062 15.9707 16.1912 15.9707 16.0702 16.0111C15.9627 16.0379 15.8686 16.0783 15.788 16.1589C15.7208 16.2261 15.7342 16.3739 15.6402 16.4143C15.4789 16.5083 15.3982 16.4815 15.2235 16.5621C15.1832 16.589 15.0891 16.6965 15.0488 16.7099C14.8338 16.7368 14.4037 16.6293 14.3903 16.6696C14.3634 16.7099 14.7263 16.9115 14.7935 17.0997C14.8203 17.1803 14.6187 17.0594 14.5381 17.0728C14.4037 17.0863 14.2693 17.1131 14.1618 17.1669C14.0543 17.2207 13.9602 17.3147 13.8795 17.4088C13.7989 17.4895 13.7586 17.597 13.6645 17.6642C13.6242 17.6911 13.5301 17.6507 13.5032 17.691C13.4629 17.7448 13.4495 17.8658 13.5167 17.8658L13.893 17.8926C13.9602 17.8926 13.8258 18.0405 13.8661 18.1077C13.893 18.148 13.9871 18.1346 14.0274 18.1077C14.0811 18.0808 14.108 18.0002 14.1752 17.9598C14.2424 17.9195 14.3096 17.8658 14.3903 17.8658C14.4843 17.8658 14.6053 17.9061 14.6456 17.9867C14.6859 18.0674 14.5919 18.1614 14.5784 18.2421C14.565 18.3362 14.6187 18.4571 14.5515 18.5243C14.3499 18.7125 14.2827 18.5512 13.9871 18.9275C13.7451 19.2232 13.8527 19.0619 13.772 19.4517C13.7586 19.5323 13.7451 19.613 13.6779 19.6667C13.6107 19.707 13.5032 19.7339 13.436 19.6936C13.3016 19.6264 13.221 19.492 13.1269 19.3576C13.0731 19.2904 13.1 19.1694 13.0328 19.1157C12.9387 19.0619 12.8043 19.0619 12.6968 19.0888C12.6162 19.1157 12.5759 19.2098 12.5355 19.277C12.428 19.4248 12.3474 19.5995 12.2533 19.7474C12.1727 19.8683 12.0651 19.9758 11.9979 20.0968C11.9576 20.164 11.9845 20.2446 11.9442 20.3118C11.8635 20.5 11.7963 20.6747 11.7023 20.8494C11.6619 20.9166 11.5813 20.957 11.5544 21.0376C11.541 21.1182 11.5679 21.293 11.6082 21.293C11.6485 21.293 11.7829 21.1989 11.8635 21.1451C11.9576 21.1048 12.1323 21.051 12.1458 21.0242C12.1592 20.9973 12.0517 20.9032 11.9979 20.836C11.9039 20.715 12.1055 20.5403 12.1861 20.4059C12.213 20.3522 12.2802 20.3387 12.3071 20.285C12.3608 20.1774 12.3743 20.043 12.428 19.9355C12.4952 19.7877 12.5759 19.6398 12.6834 19.5323C12.7371 19.4786 12.8312 19.4382 12.8984 19.492C13.0059 19.5592 13.0194 19.707 13.0866 19.828C13.1403 19.9086 13.2075 19.9893 13.2344 20.0834C13.2613 20.164 13.1807 20.2715 13.2344 20.3387C13.3016 20.4194 13.436 20.4462 13.5435 20.4597L13.7855 20.4866L13.8123 20.8226C13.8258 20.9435 13.557 20.8494 13.436 20.8763C13.3285 20.9032 13.221 20.9435 13.1 20.9704C12.9925 20.9973 12.7909 20.9032 12.764 21.0242C12.6699 21.4946 12.7909 21.965 12.8178 22.4354C12.8178 22.5563 12.7506 22.7579 12.8715 22.8117L13.1 22.9058C13.1403 22.9998 13.1672 23.1208 13.221 23.188C13.2075 23.2552 13.2747 23.2686 13.3285 23.2821Z" fill="white"/>
<path d="M20.7339 14.3176C20.7339 14.2235 20.6667 14.1832 20.5457 14.1832H20.0888C19.9678 14.1832 19.9006 14.2235 19.9006 14.3176C19.9006 14.4117 19.9678 14.452 20.0888 14.452H20.1829V15.2987C20.1829 15.4466 20.2232 15.5138 20.3173 15.5138C20.4113 15.5138 20.4517 15.4466 20.4517 15.2987V14.452H20.5457C20.6801 14.452 20.7339 14.4117 20.7339 14.3176ZM19.4302 14.6133C19.4302 14.7208 19.3765 14.7746 19.269 14.7746H19.148V14.452H19.269C19.3765 14.452 19.4302 14.5058 19.4302 14.6133ZM19.7259 15.3794C19.7259 15.3256 19.699 15.2719 19.6453 15.2047L19.4302 14.9359C19.605 14.8955 19.7125 14.7611 19.7125 14.573C19.7125 14.3311 19.5512 14.1563 19.269 14.1563H19.0674C18.9195 14.1563 18.8792 14.2235 18.8792 14.3714V15.2853C18.8792 15.4331 18.9195 15.5003 19.0136 15.5003C19.1077 15.5003 19.148 15.4331 19.148 15.2853V14.9627L19.4571 15.4063C19.5109 15.4735 19.5512 15.5138 19.605 15.5138C19.6722 15.5138 19.7259 15.46 19.7259 15.3794ZM18.3013 14.9627H18.019L18.1669 14.4789L18.3013 14.9627ZM18.6776 15.3659C18.6776 15.3391 18.6776 15.3122 18.6642 15.2719L18.3685 14.3311C18.3282 14.2235 18.261 14.1563 18.1669 14.1563C18.0728 14.1563 18.0056 14.2235 17.9653 14.3445L17.6562 15.2719C17.6427 15.2987 17.6427 15.3256 17.6427 15.3525C17.6427 15.4331 17.6965 15.5003 17.7637 15.5003C17.8174 15.5003 17.8712 15.46 17.8981 15.3659L17.9384 15.2315H18.3685L18.3954 15.3525C18.4222 15.4466 18.4626 15.5003 18.5298 15.5003C18.6238 15.5138 18.6776 15.46 18.6776 15.3659ZM17.4546 14.8955C17.4546 14.7477 17.4008 14.6939 17.2933 14.6939H17.1186C17.011 14.6939 16.9573 14.7343 16.9573 14.8283C16.9573 14.9224 17.011 14.9627 17.1186 14.9627H17.1992C17.1992 15.124 17.1186 15.2315 16.9842 15.2315C16.8363 15.2315 16.7288 15.0703 16.7288 14.8149C16.7288 14.5595 16.8363 14.4117 16.9842 14.4117C17.132 14.4117 17.1992 14.5327 17.2664 14.5327C17.3202 14.5327 17.3739 14.4655 17.3739 14.3983C17.3739 14.2639 17.2261 14.1295 16.9976 14.1295C16.675 14.1295 16.4734 14.3983 16.4734 14.8283C16.4734 15.245 16.675 15.5272 16.9707 15.5272C17.2664 15.5272 17.4546 15.2584 17.4546 14.8955ZM16.4062 14.3176C16.4062 14.2235 16.339 14.1832 16.2181 14.1832H15.7611C15.6402 14.1832 15.573 14.2235 15.573 14.3176C15.573 14.4117 15.6402 14.452 15.7611 14.452H15.8552V15.2987C15.8552 15.4466 15.8955 15.5138 15.9896 15.5138C16.0837 15.5138 16.124 15.4466 16.124 15.2987V14.452H16.2181C16.339 14.452 16.4062 14.4117 16.4062 14.3176ZM15.5192 14.3176C15.5192 14.2235 15.452 14.1832 15.331 14.1832H14.8741C14.7531 14.1832 14.6859 14.2235 14.6859 14.3176C14.6859 14.4117 14.7531 14.452 14.8741 14.452H14.9682V15.2987C14.9682 15.4466 15.0085 15.5138 15.1026 15.5138C15.1966 15.5138 15.237 15.4466 15.237 15.2987V14.452H15.331C15.452 14.452 15.5192 14.4117 15.5192 14.3176ZM14.5247 14.9224V14.3714C14.5247 14.2235 14.4843 14.1563 14.3903 14.1563C14.2962 14.1563 14.2559 14.2235 14.2559 14.3714V14.8955C14.2559 15.124 14.1752 15.245 14.0274 15.245C13.8795 15.245 13.7989 15.124 13.7989 14.8955V14.3714C13.7989 14.2235 13.7586 14.1563 13.6645 14.1563C13.5704 14.1563 13.5301 14.2235 13.5301 14.3714V14.9224C13.5301 15.3122 13.7183 15.5272 14.0274 15.5272C14.3231 15.5272 14.5247 15.3122 14.5247 14.9224ZM13.4226 14.3176C13.4226 14.2235 13.3554 14.1832 13.2344 14.1832H12.7775C12.6565 14.1832 12.5893 14.2235 12.5893 14.3176C12.5893 14.4117 12.6565 14.452 12.7775 14.452H12.8715V15.2987C12.8715 15.4466 12.9119 15.5138 13.0059 15.5138C13.1 15.5138 13.1403 15.4466 13.1403 15.2987V14.452H13.2344C13.3554 14.452 13.4226 14.4117 13.4226 14.3176ZM12.4952 15.0837C12.4952 14.8821 12.3877 14.7611 12.1727 14.6805C12.0383 14.6267 11.9576 14.6133 11.9576 14.5192C11.9576 14.452 12.0114 14.4117 12.092 14.4117C12.1592 14.4117 12.2399 14.452 12.2936 14.452C12.3743 14.452 12.4146 14.3983 12.4146 14.3311C12.4146 14.2235 12.2936 14.1429 12.092 14.1429C11.8367 14.1429 11.6754 14.3176 11.6754 14.5595C11.6754 14.7611 11.7829 14.8552 11.9979 14.9359C12.1189 14.9762 12.1995 15.0165 12.1995 15.124C12.1995 15.2047 12.1458 15.2584 12.0651 15.2584C11.9442 15.2584 11.8501 15.1912 11.7829 15.1912C11.7023 15.1912 11.6485 15.245 11.6485 15.3256C11.6485 15.4331 11.8098 15.5407 12.0248 15.5407C12.3205 15.5272 12.4952 15.3391 12.4952 15.0837Z" fill="white"/>
</g>
</svg>
