<svg width="41" height="40" viewBox="0 0 41 40" fill="none" xmlns="http://www.w3.org/2000/svg">
<g id="Vector">
<path d="M20.4616 39.6922L25.9953 8.57091C31.2674 8.57091 32.9375 9.15669 33.1743 11.5123C33.1743 11.5123 36.714 10.1912 38.4962 7.51151C31.5291 4.28347 24.5371 4.13391 24.5371 4.13391L20.4491 9.10684H20.4616L16.3735 4.13391C16.3735 4.13391 9.38152 4.28347 2.41443 7.51151C4.19671 10.1912 7.73634 11.5123 7.73634 11.5123C7.98561 9.15669 9.64325 8.57091 14.8779 8.57091L20.4616 39.6922Z" fill="white"/>
<path d="M20.4616 2.70061C26.0951 2.65075 32.5262 3.57305 39.1319 6.45212C40.0168 4.86925 40.2411 4.15884 40.2411 4.15884C33.9471 1.65367 27.2417 0.345008 20.4616 0.307617C13.6814 0.345008 6.97607 1.65367 0.682007 4.15884C1.00606 4.94404 1.3675 5.70431 1.79126 6.45212C8.38444 3.57305 14.8281 2.66322 20.4616 2.70061Z" fill="white"/>
</g>
</svg>
