<svg width="43" height="18" viewBox="0 0 43 18" fill="none" xmlns="http://www.w3.org/2000/svg">
<g id="google-pay" clip-path="url(#clip0_83_2116)">
<path id="Vector" d="M30.1258 5.08798C31.2941 5.08798 32.197 5.4079 32.8875 6.04773C33.5779 6.68748 33.8964 7.54057 33.8964 8.6069V13.7252H32.4094V12.5524H32.3563C31.7191 13.5121 30.8162 13.992 29.754 13.992C28.8511 13.992 28.0545 13.7253 27.4173 13.1922C26.8331 12.6591 26.4613 11.9126 26.4613 11.1129C26.4613 10.2598 26.78 9.56665 27.4173 9.03348C28.0545 8.50032 28.9574 8.28707 30.0196 8.28707C30.9755 8.28707 31.7191 8.44707 32.3032 8.82023V8.44707C32.3032 7.9494 32.1182 7.45182 31.748 7.12757L31.6659 7.06082C31.241 6.68757 30.7099 6.47432 30.1258 6.47432C29.2229 6.47432 28.5326 6.84757 28.0545 7.59398L26.6738 6.74073C27.5234 5.62107 28.6387 5.08798 30.1258 5.08798ZM22.6375 1.46249C23.5904 1.46249 24.496 1.7954 25.2201 2.41624L25.346 2.52874C26.0896 3.16857 26.4613 4.12832 26.4613 5.14132C26.4613 6.15432 26.0896 7.06073 25.346 7.75382C24.6025 8.44698 23.6997 8.82015 22.6375 8.82015L20.0883 8.76682V13.7253H18.495V1.4624L22.6375 1.46249ZM30.3381 9.56665C29.7009 9.56665 29.1698 9.72657 28.745 10.0465C28.3201 10.3131 28.1076 10.6862 28.1076 11.1661C28.1076 11.5926 28.3201 11.9658 28.6387 12.1791C29.0105 12.4457 29.4353 12.6056 29.8603 12.6056C30.455 12.6056 31.0499 12.3734 31.5151 11.9523L31.6128 11.8592C32.1439 11.3794 32.4094 10.7929 32.4094 10.1531C31.9315 9.7799 31.241 9.56657 30.3382 9.56657L30.3381 9.56665ZM22.7438 2.95532H20.0883V7.22073H22.7438C23.3279 7.22073 23.9121 7.00748 24.2839 6.58098C25.1335 5.78123 25.1335 4.44832 24.337 3.64848L24.2839 3.59515C23.859 3.16865 23.3279 2.90207 22.7437 2.9554L22.7438 2.95532ZM42.5 5.35457L37.2423 17.4575H35.6491L37.614 13.2455L34.162 5.4079H35.8615L38.3575 11.4326H38.4107L40.8537 5.4079H42.5V5.35457Z" fill="#5F6368"/>
<path id="Vector_2" d="M13.7683 7.70049C13.7683 7.22065 13.7152 6.74082 13.6621 6.26099H7.02368V8.98015H10.7943C10.635 9.83315 10.1571 10.6329 9.41356 11.1128V12.8722H11.6972C13.0249 11.646 13.7684 9.83315 13.7684 7.70057L13.7683 7.70049Z" fill="#4285F4"/>
<path id="Vector_3" d="M7.02359 14.5784C8.93543 14.5784 10.5287 13.9386 11.6971 12.8723L9.41347 11.1129C8.77614 11.5394 7.97951 11.806 7.02359 11.806C5.21784 11.806 3.62459 10.5797 3.09351 8.87354H0.756836V10.6863C1.9783 13.0855 4.36817 14.5784 7.02359 14.5784Z" fill="#34A853"/>
<path id="Vector_4" d="M3.09351 8.87347C2.77493 8.02039 2.77493 7.06072 3.09351 6.1543V4.34155H0.756844C-0.252281 6.3143 -0.252281 8.66022 0.756844 10.6862L3.09351 8.87347Z" fill="#FBBC04"/>
<path id="Vector_5" d="M7.02365 3.27536C8.0327 3.27536 8.98861 3.64861 9.7322 4.3417L11.7503 2.3157C10.4756 1.1427 8.7762 0.449612 7.07669 0.502862C4.42127 0.502862 1.97835 1.99578 0.809937 4.39503L3.14669 6.20778C3.62465 4.50161 5.2179 3.27536 7.02365 3.27536Z" fill="#EA4335"/>
</g>
<defs>
<clipPath id="clip0_83_2116">
<rect width="42.5" height="17" fill="white" transform="translate(0 0.5)"/>
</clipPath>
</defs>
</svg>
