<svg width="27" height="26" viewBox="0 0 27 26" fill="none" xmlns="http://www.w3.org/2000/svg">
<path id="Vector" d="M7.28749 2.60538C9.066 1.58436 11.1309 1 13.3333 1C20.0112 1 25.4249 6.37258 25.4249 13C25.4249 19.6274 20.0112 25 13.3333 25C6.65528 25 1.24168 19.6274 1.24168 13C1.24168 10.8143 1.83051 8.76504 2.85932 7M14.5715 16.0721C11.7785 17.1808 10.3821 17.7352 9.58445 17.1972C9.39534 17.0697 9.23223 16.9078 9.10372 16.7201C8.5617 15.9286 9.12027 14.5427 10.2374 11.771C10.4757 11.1797 10.5949 10.8842 10.7998 10.6522C10.852 10.5931 10.9081 10.5375 10.9676 10.4857C11.2013 10.2823 11.4991 10.1641 12.0949 9.92759C14.8878 8.8189 16.2842 8.26456 17.0818 8.80247C17.2709 8.93001 17.434 9.09189 17.5626 9.27957C18.1046 10.0712 17.546 11.457 16.4289 14.2288C16.1905 14.8199 16.0714 15.1156 15.8665 15.3474C15.8142 15.4066 15.7583 15.4622 15.6986 15.514C15.465 15.7174 15.1671 15.8356 14.5715 16.0721Z" stroke="white" stroke-width="2" stroke-linecap="round"/>
</svg>
