<svg width="24" height="26" viewBox="0 0 24 26" fill="none" xmlns="http://www.w3.org/2000/svg">
<path id="Vector" d="M8.52894 1.80897C9.58097 1.29024 10.7579 1 12 1C16.4729 1 20.0989 4.76348 20.0989 9.40596V10.2515C20.0989 11.2662 20.3884 12.2582 20.9306 13.1025L22.2595 15.1714C23.4734 17.0612 22.5468 19.6299 20.4355 20.2275C14.9128 21.7908 9.08729 21.7908 3.56443 20.2275C1.45326 19.6299 0.526582 17.0612 1.74043 15.1714L3.06936 13.1025C3.61166 12.2582 3.90104 11.2662 3.90104 10.2515V9.40596C3.90104 8.1167 4.18069 6.89523 4.68047 5.80332M6.6 21.4C7.38603 23.4974 9.50695 25 12 25C12.2934 25 12.5816 24.9792 12.863 24.939M17.4 21.4C17.0795 22.2551 16.5372 23.0114 15.8382 23.6072" stroke="white" stroke-width="2" stroke-linecap="round"/>
</svg>
