<svg width="28" height="32" viewBox="0 0 28 32" fill="none" xmlns="http://www.w3.org/2000/svg">
<g id="paypal" clip-path="url(#clip0_83_2103)">
<path id="Vector" d="M23.5151 2.49077C22.0384 0.807909 19.369 0.0864258 15.9541 0.0864258H6.043C5.70512 0.0864383 5.37833 0.20696 5.12138 0.426322C4.86443 0.645684 4.69418 0.949497 4.64122 1.28314L0.514432 27.4518C0.432405 27.9678 0.832049 28.4351 1.35516 28.4351H7.47392L9.0106 18.6899L8.96291 18.995C9.07239 18.3062 9.66162 17.7981 10.3594 17.7981H13.267C18.979 17.7981 23.4516 15.4784 24.7581 8.76806C24.7969 8.5696 24.8305 8.37644 24.8595 8.18772C24.6946 8.10041 24.6946 8.10041 24.8595 8.18772C25.2486 5.70751 24.8569 4.01925 23.5151 2.49077Z" fill="#27346A"/>
<path id="Vector_2" d="M11.3519 7.29426C11.5192 7.21463 11.7021 7.17336 11.8874 7.17347H19.6575C20.5776 7.17347 21.4358 7.23334 22.2201 7.35953C22.4395 7.39452 22.6578 7.43629 22.8747 7.48478C23.1821 7.55259 23.4859 7.63559 23.785 7.73347C24.1706 7.86221 24.5296 8.01214 24.8597 8.18772C25.2486 5.70656 24.8569 4.01925 23.5151 2.49077C22.0376 0.807909 19.369 0.0864258 15.9541 0.0864258H6.04215C5.34429 0.0864258 4.7506 0.594399 4.64123 1.28314L0.514433 27.4509C0.432406 27.9677 0.83205 28.4344 1.35431 28.4344H7.47392L10.6621 8.22036C10.6934 8.02167 10.7726 7.83357 10.8927 7.67225C11.0129 7.51093 11.1705 7.38121 11.3519 7.29426Z" fill="#27346A"/>
<path id="Vector_3" d="M24.7581 8.76809C23.4516 15.4775 18.9791 17.7981 13.267 17.7981H10.3586C9.66079 17.7981 9.07145 18.3062 8.96303 18.9951L7.05129 31.1121C6.97986 31.5637 7.32916 31.973 7.78614 31.973H12.9441C13.2396 31.9729 13.5253 31.8674 13.7499 31.6755C13.9746 31.4836 14.1234 31.2179 14.1695 30.9261L14.2198 30.6633L15.1919 24.5032L15.2545 24.1627C15.3007 23.871 15.4495 23.6052 15.6741 23.4133C15.8987 23.2214 16.1844 23.116 16.4799 23.1159H17.2518C22.2484 23.1159 26.1608 21.0863 27.3041 15.2165C27.7813 12.7635 27.5343 10.7155 26.2719 9.27702C25.889 8.84131 25.4135 8.48147 24.8596 8.18774C24.8296 8.37741 24.797 8.56962 24.7581 8.76809Z" fill="#2790C3"/>
<path id="Vector_4" d="M23.4922 7.64264C23.2885 7.58317 23.0828 7.53051 22.8756 7.48476C22.6586 7.43706 22.4403 7.39558 22.221 7.36036C21.4359 7.23332 20.5783 7.17334 19.6574 7.17334H11.8882C11.7028 7.17292 11.5197 7.21455 11.3527 7.29509C11.1711 7.38177 11.0133 7.51141 10.8931 7.67278C10.7729 7.83415 10.6939 8.02238 10.6628 8.22118L9.01144 18.6898L8.96375 18.995C9.07237 18.3062 9.66161 17.7981 10.3595 17.7981H13.2679C18.98 17.7981 23.4525 15.4784 24.759 8.76805C24.7978 8.56958 24.8305 8.37726 24.8605 8.1877C24.5296 8.01308 24.1715 7.86219 23.7859 7.7343C23.6885 7.70204 23.5907 7.67149 23.4923 7.64264" fill="#1F264F"/>
</g>
<defs>
<clipPath id="clip0_83_2103">
<rect width="27.1304" height="32" fill="white" transform="translate(0.5)"/>
</clipPath>
</defs>
</svg>
