<svg width="22" height="34" viewBox="0 0 22 34" fill="none" xmlns="http://www.w3.org/2000/svg">
<g id="Vector">
<path d="M11.0001 0.563125C5.23243 0.563125 0.556837 5.21203 0.556837 10.9467C0.556837 16.1641 4.62326 26.0485 11.0001 33.4369C17.3769 26.0486 21.4433 16.1641 21.4433 10.9467C21.4432 5.21203 16.7676 0.563125 11.0001 0.563125Z" fill="#00CAAA"/>
<path d="M11.0001 15.6976C8.36477 15.6976 6.22055 13.5658 6.22029 10.9454C6.22049 8.32615 8.36477 6.19424 11.0001 6.19424C13.6354 6.19424 15.7796 8.32608 15.7799 10.9465C15.7795 13.5658 13.6353 15.6976 11.0001 15.6976Z" fill="white"/>
<path d="M10.9999 34C10.8347 34 10.6778 33.9282 10.5702 33.8036C3.94777 26.1307 -0.00952148 16.1566 -0.00952148 10.9467C-0.00952148 8.60074 0.726677 6.36345 2.1194 4.47658C2.30447 4.22583 2.65891 4.17177 2.9111 4.35579C3.16322 4.5398 3.21765 4.89221 3.03258 5.14296C1.78346 6.83533 1.1232 8.84226 1.1232 10.9467C1.1232 13.4863 2.13696 17.2047 3.9045 21.1485C5.73528 25.2334 8.24148 29.262 11.0002 32.5641C12.0752 31.2781 13.1122 29.8841 14.0884 28.4118C14.2606 28.1521 14.6117 28.0804 14.8729 28.2516C15.1341 28.4228 15.2062 28.7721 15.034 29.0317C13.9021 30.7387 12.6895 32.3442 11.4299 33.8036C11.3222 33.9282 11.1652 34 10.9999 34ZM15.7958 27.3276C15.6971 27.3276 15.5971 27.3019 15.5062 27.2479C15.2375 27.0886 15.1497 26.7429 15.3101 26.4758C18.6919 20.8412 20.8769 14.7456 20.8769 10.9466C20.8769 5.53171 16.4461 1.12625 10.9999 1.12625C8.59826 1.12625 6.28313 1.99411 4.48087 3.56987C4.24598 3.7752 3.88807 3.75242 3.68163 3.51887C3.47512 3.28538 3.49796 2.92958 3.73292 2.72418C5.74202 0.967406 8.32282 0 10.9999 0C17.0707 0 22.0095 4.91068 22.0095 10.9467C22.0095 14.9344 19.7616 21.2566 16.2826 27.0531C16.1767 27.2297 15.9887 27.3276 15.7958 27.3276ZM10.9999 16.2608C8.0524 16.2608 5.65413 13.8763 5.65379 10.9455C5.65413 8.0151 8.0524 5.63112 10.9999 5.63112C13.5344 5.63112 15.7382 7.42329 16.2401 9.89261C16.302 10.1974 16.1037 10.4944 15.7972 10.5561C15.4906 10.6176 15.1918 10.4205 15.1299 10.1157C14.7344 8.16976 12.9976 6.75737 11 6.75737C8.67693 6.75737 6.78678 8.63613 6.78658 10.9454C6.78678 13.2552 8.67693 15.1345 11 15.1345C12.8674 15.1345 14.5324 13.887 15.0491 12.1009C15.1356 11.8021 15.4495 11.6295 15.7499 11.7154C16.0505 11.8014 16.2241 12.1133 16.1376 12.4122C15.4822 14.6782 13.3696 16.2608 10.9999 16.2608Z" fill="black" fill-opacity="0.4"/>
</g>
</svg>
