<svg width="23" height="22" viewBox="0 0 23 22" fill="none" xmlns="http://www.w3.org/2000/svg">
<g id="flat-color-icons:google">
<path id="Vector" d="M20.4884 9.20472H19.75V9.16668H11.5V12.8333H16.6805C15.9247 14.9678 13.8939 16.5 11.5 16.5C8.4626 16.5 5.99998 14.0374 5.99998 11C5.99998 7.96264 8.4626 5.50001 11.5 5.50001C12.902 5.50001 14.1776 6.02893 15.1488 6.89289L17.7416 4.30009C16.1044 2.7743 13.9145 1.83334 11.5 1.83334C6.43769 1.83334 2.33331 5.93772 2.33331 11C2.33331 16.0623 6.43769 20.1667 11.5 20.1667C16.5623 20.1667 20.6666 16.0623 20.6666 11C20.6666 10.3854 20.6034 9.78543 20.4884 9.20472Z" fill="#FFC107"/>
<path id="Vector_2" d="M3.39026 6.73339L6.40197 8.94209C7.21688 6.92451 9.19047 5.50001 11.5 5.50001C12.9021 5.50001 14.1776 6.02893 15.1488 6.89288L17.7416 4.30009C16.1044 2.7743 13.9145 1.83334 11.5 1.83334C7.97909 1.83334 4.92568 3.82114 3.39026 6.73339Z" fill="#FF3D00"/>
<path id="Vector_3" d="M11.5 20.1667C13.8677 20.1667 16.0191 19.2606 17.6458 17.787L14.8087 15.3863C13.8574 16.1097 12.6951 16.501 11.5 16.5C9.11573 16.5 7.09127 14.9797 6.32861 12.8581L3.33936 15.1612C4.85644 18.1298 7.93736 20.1667 11.5 20.1667Z" fill="#4CAF50"/>
<path id="Vector_4" d="M20.4884 9.2047H19.75V9.16666H11.5V12.8333H16.6805C16.319 13.8492 15.6678 14.7369 14.8073 15.3867L14.8087 15.3858L17.6458 17.7865C17.445 17.9689 20.6667 15.5833 20.6667 11C20.6667 10.3854 20.6034 9.78541 20.4884 9.2047Z" fill="#1976D2"/>
</g>
</svg>
