<svg xmlns="http://www.w3.org/2000/svg" width="289" height="87" viewBox="0 0 289 87" fill="none">
  <path d="M11.0039 87H0.503298L0 0.0685859H18.3017C20.62 0.190517 22.6865 0.731583 24.5015 1.69179C25.2793 2.13379 26.0342 2.67485 26.7663 3.31499C27.4984 3.95512 28.1542 4.75529 28.7337 5.7155C29.3133 6.66046 29.7785 7.77307 30.1292 9.05334C30.4953 10.3336 30.6783 11.8273 30.6783 13.5343C30.7393 15.409 30.5639 17.2075 30.1521 18.9297C29.9691 19.6461 29.7174 20.3776 29.3972 21.1245C29.0921 21.8713 28.6956 22.5876 28.2076 23.2735C27.7348 23.9594 27.1628 24.5843 26.4918 25.1482C25.8207 25.7121 25.0124 26.1846 24.0668 26.5656C23.6397 26.718 22.8238 26.9619 21.6189 27.2972C20.4141 27.6173 18.6983 27.7773 16.4716 27.7773H11.0039V87ZM10.9124 17.558L16.952 17.5123C17.6993 17.4818 18.3704 17.2989 18.9652 16.9636C19.499 16.6435 19.9718 16.1634 20.3836 15.5233C20.8106 14.8832 21.0241 13.9077 21.0241 12.597C21.0241 11.5758 20.7953 10.8061 20.3378 10.2879C19.8955 9.76969 19.4075 9.38865 18.8737 9.14479C18.2484 8.88569 17.5468 8.75614 16.769 8.75614L10.8667 8.82473L10.9124 17.558Z" fill="#FFD039"/>
  <path d="M77.6515 33.6757H64.703L59.0524 23.7536H57.8628L58.0229 33.6757H47.1334L46.8589 0.0685859H65.1835C67.1814 0.190517 68.9735 0.685859 70.5596 1.55461C71.2612 1.93565 71.9246 2.41575 72.5499 2.99492C73.1905 3.55885 73.77 4.26757 74.2886 5.12108C74.8071 5.95936 75.2189 6.95004 75.5239 8.09314C75.8442 9.23624 76.0196 10.5546 76.0501 12.0483C76.1721 13.4505 76.0654 14.7917 75.7298 16.072C75.5621 16.6359 75.3486 17.2075 75.0893 17.7866C74.83 18.3658 74.4792 18.9221 74.0369 19.4555C73.5946 19.9738 73.0608 20.4767 72.4355 20.9644C71.8102 21.4522 71.0782 21.8637 70.2393 22.199L77.6515 33.6757ZM63.8337 14.7231C64.2608 14.7231 64.6497 14.6393 65.0005 14.4716C65.275 14.3192 65.5266 14.0982 65.7554 13.8086C65.9994 13.5038 66.1214 13.0389 66.1214 12.4141C66.0909 11.8196 65.946 11.3776 65.6868 11.0881C65.4427 10.7832 65.1682 10.5546 64.8632 10.4022C64.5124 10.2498 64.1006 10.1736 63.6278 10.1736L57.6798 10.2193L57.7255 14.7231H63.8337Z" fill="#FFD039"/>
  <path d="M116.32 8.66469H102.64V12.757H114.696V20.0042H102.64V24.4623H116.32V33.6757H92.2078V0.0685859H116.32V8.66469Z" fill="#FFD039"/>
  <path d="M132.547 32.967L132.112 0.0685859H142.475L149.224 11.5224L154.646 0.0685859H166.634L167.114 33.6757H155.675L155.538 20.8959H154.829L149.544 31.2523L144.054 20.8959L143.368 20.9416L143.445 28.1674C143.478 31.1999 141.029 33.6757 137.996 33.6757H133.255C132.864 33.6757 132.547 33.3584 132.547 32.967Z" fill="#FFD039"/>
  <path d="M193.765 28.4061C193.769 31.3153 191.412 33.6757 188.503 33.6757C185.591 33.6757 183.232 31.3109 183.24 28.3989L183.303 5.26959C183.311 2.39487 185.644 0.0685859 188.519 0.0685859C191.396 0.0685859 193.73 2.39919 193.734 5.27669L193.765 28.4061Z" fill="#FFD039"/>
  <path d="M220.728 0L221.003 18.884C221.003 19.4174 221.041 19.9356 221.117 20.4386C221.193 20.9263 221.338 21.3607 221.552 21.7417C221.78 22.1075 222.093 22.4124 222.49 22.6562C222.901 22.8848 223.451 22.9992 224.137 22.9992C224.915 22.9992 225.517 22.8315 225.944 22.4962C226.371 22.1456 226.661 21.7494 226.813 21.3074C226.996 20.8196 227.088 20.2633 227.088 19.6384L226.813 0.0685859H237.062C237.093 3.89416 237.139 7.36918 237.2 10.4936C237.2 11.8349 237.207 13.1609 237.223 14.4716C237.238 15.7824 237.253 16.9788 237.268 18.061C237.299 19.1431 237.322 20.0652 237.337 20.8273C237.352 21.5893 237.36 22.0771 237.36 22.2904C237.36 22.58 237.36 23.0601 237.36 23.7307C237.36 24.4014 237.245 25.1558 237.017 25.9941C236.803 26.8323 236.437 27.7011 235.919 28.6003C235.4 29.4843 234.637 30.2997 233.631 31.0466C232.639 31.7934 231.351 32.4183 229.765 32.9213C228.194 33.4242 226.242 33.6909 223.908 33.7214C222.154 33.7519 220.614 33.6452 219.287 33.4014C217.96 33.1423 216.816 32.7993 215.855 32.3726C214.91 31.9306 214.117 31.4276 213.476 30.8637C212.835 30.2997 212.332 29.7206 211.966 29.1262C211.021 27.7544 210.563 26.1617 210.594 24.348L210.273 0.0685859H220.728V0Z" fill="#FFD039"/>
  <path d="M254.433 32.967L253.998 0.0685859H264.361L271.11 11.5224L276.532 0.0685859H288.52L289 87H277.561L277.424 20.8959H276.715L271.43 31.2523L265.94 20.8959L265.253 20.9416L265.391 33.6757H254.433V32.967Z" fill="#FFD039"/>
  <path d="M90.3026 78.9526C88.7317 81.376 86.6575 83.3268 84.08 84.8052C81.5025 86.2684 78.6505 87 75.5239 87C73.099 87 70.8189 86.5428 68.6837 85.6283C66.5637 84.6986 64.7107 83.4411 63.1245 81.856C61.5536 80.2557 60.3106 78.3963 59.3955 76.2777C58.4805 74.1592 58.0229 71.8806 58.0229 69.442C58.0229 67.0034 58.4805 64.7248 59.3955 62.6063C60.3106 60.4877 61.5536 58.6435 63.1245 57.0737C64.7107 55.4886 66.5637 54.2388 68.6837 53.3243C70.8189 52.3946 73.099 51.9297 75.5239 51.9297C77.3084 51.9297 79.0165 52.1812 80.6484 52.6842C82.2956 53.1719 83.8055 53.873 85.1781 54.7875C86.5507 55.6867 87.7861 56.7688 88.8842 58.0339C89.9823 59.2989 90.8745 60.7011 91.5609 62.2405L82.227 66.4014C81.6321 65.0906 80.74 64.0466 79.5503 63.2693C78.376 62.4767 77.0338 62.0804 75.5239 62.0804C74.5021 62.0804 73.5413 62.2786 72.6414 62.6748C71.7568 63.0711 70.9866 63.597 70.3308 64.2523C69.675 64.9077 69.1488 65.6774 68.7523 66.5614C68.371 67.4454 68.1804 68.4056 68.1804 69.442C68.1804 70.4632 68.371 71.4234 68.7523 72.3226C69.1488 73.2066 69.675 73.9839 70.3308 74.6545C70.9866 75.3251 71.7568 75.8586 72.6414 76.2549C73.5413 76.6359 74.5021 76.8264 75.5239 76.8264C76.9423 76.8264 78.2235 76.4682 79.3673 75.7519C80.5264 75.0356 81.4186 74.1058 82.0439 72.9627L90.3026 78.9526Z" fill="white"/>
  <path d="M123.206 52.5013L142.652 86.1084H130.23L128.926 81.9932L118.105 82.0389L116.549 86.1084H104.15L123.206 52.5013ZM120.072 75.2947L126.478 75.2489L123.206 66.7214L120.072 75.2947Z" fill="white"/>
  <path d="M187.452 86.1084H174.503L168.853 76.1863H167.663L167.823 86.1084H156.934L156.659 52.5013H174.984C176.982 52.6232 178.774 53.1185 180.36 53.9873C181.062 54.3683 181.725 54.8484 182.35 55.4276C182.991 55.9915 183.57 56.7002 184.089 57.5538C184.607 58.392 185.019 59.3827 185.324 60.5258C185.645 61.6689 185.82 62.9873 185.85 64.4809C185.973 65.8831 185.866 67.2244 185.53 68.5047C185.362 69.0686 185.149 69.6401 184.89 70.2193C184.63 70.7985 184.28 71.3548 183.837 71.8882C183.395 72.4064 182.861 72.9094 182.236 73.3971C181.611 73.8848 180.879 74.2964 180.04 74.6317L187.452 86.1084ZM173.634 67.1558C174.061 67.1558 174.45 67.072 174.801 66.9043C175.075 66.7519 175.327 66.5309 175.556 66.2413C175.8 65.9365 175.922 65.4716 175.922 64.8467C175.891 64.2523 175.746 63.8103 175.487 63.5207C175.243 63.2159 174.969 62.9873 174.664 62.8349C174.313 62.6825 173.901 62.6063 173.428 62.6063L167.48 62.652L167.526 67.1558H173.634Z" fill="white"/>
  <path d="M217.976 70.9737L214.659 77.8781L243.262 86.1084H199.56L207.476 70.9737L208.986 68.1389L212.921 60.6401L195.327 52.5013H226.876L219.326 68.1389L217.976 70.9737Z" fill="white"/>
</svg>